<svg width="616" height="455" viewBox="0 0 616 455" fill="none" xmlns="http://www.w3.org/2000/svg">
<path d="M134.839 80.2207C128.109 76.3307 117.229 76.3307 110.539 80.2207C103.849 84.1107 103.889 90.4107 110.619 94.2907C117.349 98.1707 128.229 98.1807 134.919 94.2907C141.609 90.4007 141.569 84.1107 134.839 80.2207Z" fill="url(#paint0_linear)"/>
<path d="M135.79 67.0005C135.79 58.2705 123.66 54.7705 115.28 54.7705C106.9 54.7705 94.9004 58.5405 94.9004 66.5305V66.9205C95.1948 71.8262 95.9617 76.6921 97.1904 81.4505C99.8804 91.7505 104.69 99.2005 115.11 99.2005C116.607 99.2213 118.1 99.0669 119.56 98.7405C122.13 98.2585 124.503 97.0389 126.39 95.2305C129.8 92.0105 132.2 86.0805 133.39 81.5605C133.89 79.7805 134.26 78.0605 134.6 76.2805C135.183 73.2139 135.581 70.1149 135.79 67.0005Z" fill="url(#paint1_linear)"/>
<path d="M135.78 61.1006C135.7 62.2206 135.59 63.2706 135.46 64.2706C135 72.0006 123.26 75.4406 115.41 75.4406C114.119 75.4375 112.83 75.3541 111.55 75.1906C108.66 74.8568 105.832 74.1162 103.15 72.9906L102.66 72.7706L102.53 72.7106C98.4797 70.8406 95.3797 68.0006 95.2297 64.0006C95.1297 63.0006 95.0297 61.5106 94.9697 60.8706C94.3355 62.042 93.9925 63.3488 93.9697 64.6806C94.144 68.8958 94.9949 73.0555 96.4897 77.0006C98.9997 82.7006 107.28 85.7906 115.37 85.7906C128.19 85.7906 136.68 80.2806 136.68 64.9906C136.677 63.6426 136.369 62.3127 135.78 61.1006Z" fill="url(#paint2_linear)"/>
<path d="M138 66.7507V68.3807C137.93 69.1021 137.672 69.7924 137.25 70.3822C136.829 70.972 136.26 71.4405 135.6 71.7407C133.816 72.6489 131.845 73.1282 129.844 73.1404C127.842 73.1525 125.865 72.6972 124.07 71.8107C124.89 71.6107 125.7 71.3807 126.49 71.1107C129.547 71.9065 132.789 71.5506 135.6 70.1107C137.18 69.1807 138 68.0007 138 66.7507Z" fill="url(#paint3_linear)"/>
<path d="M135.581 70.1107C132.77 71.5506 129.527 71.9065 126.471 71.1107C130.841 69.6607 134.641 67.2907 136.471 64.0107C138.741 65.8607 138.441 68.4407 135.581 70.1107Z" fill="url(#paint4_linear)"/>
<path d="M137.69 59.4606C137.69 47.7206 130.14 39.0006 115.36 39.0006C110.717 38.9698 106.134 40.0571 102 42.1706C95.12 46.1106 93 54.7006 93 59.3506C93 68.6306 106 72.8806 115.46 72.8806C125.2 72.8806 137.69 68.4506 137.69 59.4606Z" fill="url(#paint5_linear)"/>
<path d="M132.38 49.4606C132.38 56.2506 122.18 59.2906 115.38 59.2906C108.58 59.2906 98.3398 56.1906 98.3398 49.4006C98.3398 42.6106 108.54 39.5706 115.3 39.5706C122.06 39.5706 132.38 42.6706 132.38 49.4606Z" fill="url(#paint6_linear)"/>
<path d="M122.29 47.1205C120.178 46.0218 117.835 45.4382 115.455 45.4173C113.074 45.3965 110.721 45.939 108.59 47.0005C104.76 49.1505 104.67 52.7005 108.4 54.9305C110.509 56.0323 112.849 56.6193 115.228 56.6436C117.608 56.668 119.959 56.1289 122.09 55.0705C125.93 52.9005 126 49.3505 122.29 47.1205Z" fill="white"/>
<path d="M23.7602 111.27C12.7602 117.64 12.6702 127.97 23.6302 134.34C34.5902 140.71 52.4202 140.71 63.4502 134.34C74.4802 127.97 74.5502 117.64 63.5902 111.27C52.6302 104.9 34.8002 104.9 23.7602 111.27Z" fill="url(#paint7_linear)"/>
<path d="M9.08984 116.53V124.12C9.08984 128.27 11.8198 132.41 17.2698 135.57C28.2698 141.94 46.0598 141.94 57.0898 135.57C62.6398 132.37 65.4198 128.16 65.4098 123.95V116.37C65.4098 120.57 62.6398 124.78 57.0898 127.99C46.0898 134.35 28.2298 134.35 17.2698 127.99C11.8298 124.82 9.10984 120.68 9.08984 116.53Z" fill="url(#paint8_linear)"/>
<path d="M17.4096 104.92C6.40958 111.29 6.31958 121.62 17.2796 127.98C28.2396 134.34 46.0696 134.35 57.0996 127.98C68.1296 121.61 68.1896 111.27 57.2296 104.9C46.2696 98.5301 28.4396 98.5501 17.4096 104.92Z" fill="url(#paint9_linear)"/>
<path d="M37.1502 111.59C36.625 111.562 36.1157 111.4 35.6702 111.12C35.1195 110.789 34.6236 110.374 34.2002 109.89V116.52L37.2002 118.22L37.1502 111.59Z" fill="url(#paint10_linear)"/>
<path d="M37.1299 118.22L40.0599 116.52L40.0799 109.89L37.1499 111.59L37.1299 118.22Z" fill="url(#paint11_linear)"/>
<path d="M38.4799 99.9299C38.8719 99.745 39.3067 99.6696 39.738 99.7119C40.1694 99.7541 40.5813 99.9124 40.9299 100.17C41.9308 100.819 42.7641 101.695 43.3619 102.728C43.9597 103.76 44.3051 104.919 44.3699 106.11C44.4125 106.534 44.3424 106.961 44.1668 107.349C43.9912 107.737 43.7163 108.072 43.3699 108.32L35.2999 113C35.6471 112.753 35.9226 112.418 36.0982 112.03C36.2739 111.642 36.3435 111.214 36.2999 110.79C36.2463 109.589 35.9072 108.419 35.3107 107.375C34.7142 106.332 33.8774 105.445 32.8699 104.79C32.5195 104.536 32.1079 104.38 31.6774 104.338C31.2469 104.296 30.8129 104.369 30.4199 104.55L38.4799 99.9299Z" fill="url(#paint12_linear)"/>
<path d="M32.8699 104.85C30.9699 103.76 29.4199 104.64 29.4199 106.85C29.4716 108.05 29.8088 109.22 30.4037 110.264C30.9985 111.307 31.8337 112.194 32.8399 112.85C34.7499 113.95 36.2999 113.07 36.2999 110.85C36.2463 109.649 35.9072 108.479 35.3107 107.435C34.7142 106.392 33.8774 105.505 32.8699 104.85Z" fill="url(#paint13_linear)"/>
<path d="M9.19973 42.0701C8.89943 42.4166 8.48918 42.6494 8.03769 42.7295C7.5862 42.8096 7.1209 42.7321 6.71973 42.5101L32.7197 103.41C33.0195 103.066 33.4279 102.835 33.8772 102.755C34.3264 102.675 34.7896 102.751 35.1897 102.97L9.19973 42.0701Z" fill="url(#paint14_linear)"/>
<path d="M35.2202 102.97L38.1502 101.27L12.1302 40.3701L9.2002 42.0801L35.2202 102.97Z" fill="url(#paint15_linear)"/>
<path d="M58.7803 59.7C55.3303 59.7 53.3203 57.65 53.3203 53.85C53.3203 40.72 74.7003 18 86.5703 18C90.0003 18 92.0003 20.09 92.0003 23.88C92.0003 37 70.6803 59.7 58.7803 59.7ZM89.5003 29.39C89.9066 28.0702 90.1287 26.7006 90.1603 25.32C90.1603 21.89 88.3403 20.03 85.2303 20.03C74.4503 20.03 55.2303 40.58 55.2303 52.41C55.2303 55.84 57.0403 57.7 60.1503 57.7C69.3703 57.7 85.8203 42 89.5003 29.39Z" fill="url(#paint16_linear)"/>
<path d="M9.07 31.0801C9.4625 30.8973 9.89686 30.8231 10.3278 30.8653C10.7587 30.9075 11.1704 31.0646 11.52 31.3201C12.5281 31.9749 13.3653 32.861 13.9618 33.9046C14.5584 34.9482 14.8972 36.1192 14.95 37.3201C14.9938 37.7426 14.9243 38.1691 14.7485 38.5558C14.5728 38.9425 14.2971 39.2753 13.95 39.5201L5.88 44.1601C6.22642 43.9123 6.50131 43.5775 6.67689 43.1894C6.85248 42.8014 6.92254 42.3739 6.88 41.9501C6.82208 40.7492 6.48006 39.5791 5.88206 38.5361C5.28405 37.4931 4.44711 36.6068 3.44 35.9501C3.08646 35.7054 2.67433 35.5589 2.24567 35.5255C1.817 35.4921 1.38715 35.5731 1 35.7601L9.07 31.0801Z" fill="url(#paint17_linear)"/>
<path d="M3.45 36.0001C1.55 34.9101 0 35.7901 0 38.0001C0.0629239 39.1905 0.40646 40.3491 1.00257 41.3815C1.59867 42.4138 2.43045 43.2905 3.43 43.9401C5.33 45.0301 6.88 44.1601 6.89 41.9401C6.82281 40.7495 6.47641 39.5915 5.87881 38.5596C5.28121 37.5277 4.44919 36.6509 3.45 36.0001Z" fill="url(#paint18_linear)"/>
<path d="M8.21973 36.1699C9.05241 37.2881 9.56413 38.6123 9.69973 39.9999L47.3197 36.5099V32.8099L44.3697 31.1099V32.8199L8.21973 36.1699Z" fill="url(#paint19_linear)"/>
<path d="M44.3797 32.8199L47.3097 31.1099L11.1497 34.4699L8.21973 36.1699L44.3797 32.8199Z" fill="url(#paint20_linear)"/>
<path d="M86.5699 17.9999C87.9401 17.9323 89.2856 18.382 90.3398 19.2599C83.6298 13.4999 75.9998 9.85989 67.0898 9.85989C64.5457 9.85623 62.0139 10.2131 59.5699 10.9199C53.2399 12.7699 44.7299 22.1499 43.5699 28.7099C43.2735 30.2787 43.1361 31.8735 43.1599 33.4699C43.1599 43.1699 48.0499 52.1099 55.0599 58.4699C54.4674 57.8694 54.0101 57.1492 53.7186 56.3576C53.4272 55.566 53.3083 54.7212 53.3699 53.8799C53.3199 40.7599 74.6399 17.9999 86.5699 17.9999Z" fill="url(#paint21_linear)"/>
<path d="M31.1299 14.26C31.1388 11.4992 31.9466 8.79996 33.4558 6.48819C34.9651 4.17642 37.1113 2.35098 39.6353 1.23225C42.1593 0.113526 44.9532 -0.250645 47.6796 0.183708C50.4061 0.61806 52.9485 1.83236 54.9999 3.68001L62.3199 10.28C61.3799 10.45 60.4699 10.67 59.5499 10.92C53.2299 12.77 44.7199 22.15 43.5499 28.71C43.3499 30.03 43.2499 30.81 43.1999 31.51L35.8799 24.91C35.78 24.8268 35.6895 24.7329 35.6099 24.63C35.6895 24.7329 35.78 24.8268 35.8799 24.91C34.3805 23.5714 33.1818 21.9301 32.363 20.0943C31.5443 18.2586 31.124 16.2701 31.1299 14.26Z" fill="url(#paint22_linear)"/>
<path d="M89.4995 29.39C85.8195 42 69.3695 57.7 60.1095 57.7C56.9995 57.7 55.1895 55.84 55.1895 52.41C55.1895 40.58 74.4495 20.03 85.1895 20.03C88.2995 20.03 90.1195 21.89 90.1195 25.32C90.0879 26.7006 89.8658 28.0702 89.4595 29.39" fill="white"/>
<path d="M73.3204 25.29C75.6633 25.5862 77.8803 26.5184 79.731 27.9854C81.5816 29.4524 82.9952 31.3982 83.8182 33.6117C84.6412 35.8252 84.8423 38.2219 84.3997 40.5416C83.957 42.8613 82.8875 45.0155 81.3072 46.7704C79.7269 48.5253 77.6962 49.8139 75.4354 50.4963C73.1746 51.1787 70.77 51.229 68.4827 50.6416C66.1953 50.0542 64.1125 48.8516 62.4603 47.1642C60.8081 45.4769 59.6495 43.3692 59.1104 41.07C62.8389 34.9828 67.6557 29.6338 73.3204 25.29Z" fill="url(#paint23_linear)"/>
<path d="M601.66 157.24C593.26 152.39 579.66 152.39 571.33 157.24C563 162.09 563 170 571.43 174.81C579.86 179.62 593.43 179.66 601.76 174.81C610.09 169.96 610.07 162.09 601.66 157.24Z" fill="url(#paint24_linear)"/>
<path d="M606.61 134.12C604.61 132.94 601.79 133.06 598.71 134.75C598.75 134.442 598.77 134.131 598.77 133.82C598.771 132.853 598.584 131.896 598.22 131C599.644 130.741 601.115 130.985 602.38 131.69L606.61 134.12Z" fill="url(#paint25_linear)"/>
<path d="M610 141.52C610 148.75 605 157.58 598.71 161.34V157.24C603.01 154.61 606.46 148.55 606.44 143.57C606.42 138.59 603.02 136.57 598.77 138.8V134.72C605 131.36 610 134.34 610 141.52Z" fill="url(#paint26_linear)"/>
<path d="M606.43 143.57C606.43 148.57 603 154.57 598.7 157.24V150.75C600.818 147.968 602.032 144.604 602.18 141.11C602.209 140.013 601.994 138.924 601.55 137.92C602.427 137.826 603.311 138.008 604.08 138.44C605.53 139.28 606.43 141.05 606.43 143.57Z" fill="url(#paint27_linear)"/>
<path d="M595.171 133.81C595.171 140.55 585.011 143.57 578.301 143.57C574.121 143.654 569.99 142.666 566.301 140.7C562.981 138.78 561.301 136.25 561.301 133.7C561.331 127 571.441 124 578.201 124C584.961 124 595.171 127.05 595.171 133.81Z" fill="url(#paint28_linear)"/>
<path d="M598.77 133.84L598.67 168.34C598.67 176.48 586.42 180.17 578.21 180.17C570 180.17 557.61 176.44 557.61 168.24L557.71 133.74C557.71 141.94 570.05 145.67 578.31 145.67C586.57 145.67 598.75 142 598.77 133.84Z" fill="url(#paint29_linear)"/>
<path d="M578.17 121.89C586.45 121.89 598.77 125.63 598.77 133.82C598.77 142.01 586.46 145.67 578.31 145.67C570.16 145.67 557.71 142 557.71 133.74C557.71 125.48 570 121.89 578.17 121.89ZM566.3 140.72C569.991 142.681 574.121 143.669 578.3 143.59C585.02 143.59 595.17 140.59 595.17 133.81C595.17 127.03 585 124 578.19 124C571.38 124 561.31 127 561.31 133.75C561.31 136.28 562.98 138.75 566.31 140.75" fill="url(#paint30_linear)"/>
<path d="M595.171 133.81C595.171 140.55 585.011 143.57 578.301 143.57C574.121 143.654 569.99 142.666 566.301 140.7C562.981 138.78 561.301 136.25 561.301 133.7C561.331 127 571.441 124 578.201 124C584.961 124 595.171 127.05 595.171 133.81Z" fill="url(#paint31_linear)"/>
<path d="M598.77 133.84L598.67 168.34C598.67 176.48 586.42 180.17 578.21 180.17C570 180.17 557.61 176.44 557.61 168.24L557.71 133.74C557.71 141.94 570.05 145.67 578.31 145.67C586.57 145.67 598.75 142 598.77 133.84Z" fill="url(#paint32_linear)"/>
<path d="M578.17 121.89C586.45 121.89 598.77 125.63 598.77 133.82C598.77 142.01 586.46 145.67 578.31 145.67C570.16 145.67 557.71 142 557.71 133.74C557.71 125.48 570 121.89 578.17 121.89ZM566.3 140.72C569.991 142.681 574.121 143.669 578.3 143.59C585.02 143.59 595.17 140.59 595.17 133.81C595.17 127.03 585 124 578.19 124C571.38 124 561.31 127 561.31 133.75C561.31 136.28 562.98 138.75 566.31 140.75" fill="url(#paint33_linear)"/>
<path d="M595.17 133.81C595.17 140.55 585.01 143.57 578.3 143.57C574.12 143.654 569.989 142.666 566.3 140.7C562.98 138.78 561.3 136.25 561.3 133.7C561.33 127 571.44 124 578.2 124C584.96 124 595.17 127.05 595.17 133.81Z" fill="url(#paint34_linear)"/>
<path d="M563.65 138.71C564.442 139.491 565.333 140.163 566.3 140.71C569.99 142.676 574.121 143.664 578.3 143.58C583.05 143.58 589.51 142.07 592.89 138.8C593.09 138.6 589.15 136.31 588.8 136.16C588.14 135.86 587.39 135.72 586.8 135.42C586.006 134.875 585.154 134.419 584.26 134.06C583.269 133.873 582.252 133.873 581.26 134.06C579.71 134.25 578.41 133.98 576.9 134.06C575.275 134.129 573.66 134.36 572.08 134.75C570.46 135.11 568.881 135.64 567.37 136.33C567 136.43 563.48 138.54 563.65 138.71Z" fill="url(#paint35_linear)"/>
<path d="M569.46 129.21C567.3 123.75 571.46 116.53 567.57 112.12C565.99 110.33 563.57 109.66 561.5 108.41C559.916 107.422 558.594 106.066 557.645 104.457C556.697 102.849 556.15 101.035 556.052 99.1705C555.954 97.3058 556.307 95.445 557.081 93.7458C557.856 92.0467 559.028 90.5594 560.5 89.4101C563.14 87.3601 566.6 86.5101 569.06 84.2501C571.28 82.2501 572.43 79.2501 573.81 76.6101C575.19 73.9701 577.11 71.1701 580 70.3001C582.038 69.8122 584.178 69.973 586.12 70.7601C588.002 71.3518 589.73 72.3523 591.18 73.6901C596.09 78.5201 595.09 87.6201 600.64 91.6901C603.36 93.6901 607.01 93.9001 609.96 95.5501C612.128 96.8394 613.787 98.8345 614.659 101.201C615.531 103.568 615.563 106.162 614.75 108.55C613.27 112.55 609.54 115.3 605.63 116.97C601.72 118.64 597.49 119.46 593.5 120.97C592.579 121.249 591.727 121.719 591 122.35C589.46 123.89 589.56 126.35 588.81 128.44C587.81 131.19 585.3 133.07 582.92 134.78C581.92 135.5 579.58 137.96 578.38 137.99C577.18 138.02 576.12 136.42 575.26 135.66C573.08 133.74 570.57 132 569.46 129.21Z" fill="url(#paint36_linear)"/>
<path d="M598.77 133.84V134.72C598.751 134.713 598.729 134.713 598.71 134.72C598.749 134.428 598.769 134.134 598.77 133.84Z" fill="url(#paint37_linear)"/>
<path d="M428 412.591L484.38 379.831L516.7 395.951L460.32 428.711L428 412.591Z" fill="url(#paint38_linear)"/>
<path d="M465.13 431.491L521.52 398.721L553.83 419.921L500.65 450.831C499.686 451.388 498.587 451.667 497.474 451.635C496.362 451.603 495.28 451.263 494.35 450.651L465.13 431.491Z" fill="url(#paint39_linear)"/>
<path d="M420 411.591L476.38 378.831L508.7 394.951L452.32 427.711L420 411.591Z" fill="url(#paint40_linear)"/>
<path d="M452.32 427.711L508.7 394.951L508.82 397.551L452.43 430.321L452.32 427.711Z" fill="url(#paint41_linear)"/>
<path d="M452.43 430.321L508.82 397.551L513.39 400.191L457.01 432.961L452.43 430.321Z" fill="url(#paint42_linear)"/>
<path d="M515.56 404.001L459.18 436.741C459.382 436.601 459.547 436.412 459.657 436.192C459.767 435.972 459.819 435.727 459.81 435.481L516.19 402.711C516.208 402.962 516.159 403.214 516.048 403.441C515.938 403.667 515.769 403.861 515.56 404.001Z" fill="url(#paint43_linear)"/>
<path d="M457.13 430.491L489.45 451.691L489.28 454.851L459.81 435.481C459.74 436.771 458.81 437.251 457.64 436.591L451.78 433.201C451.176 432.808 450.669 432.284 450.297 431.667C449.924 431.051 449.696 430.358 449.63 429.641L420.15 414.941L420 411.591L452.32 427.711L452.43 430.321L457 433.001L457.13 430.491Z" fill="url(#paint44_linear)"/>
<path d="M489.45 451.691L545.83 418.921L545.66 422.091L489.28 454.851L489.45 451.691Z" fill="url(#paint45_linear)"/>
<path d="M457.13 430.491L513.52 397.721L545.83 418.921L489.45 451.691L457.13 430.491Z" fill="url(#paint46_linear)"/>
<path d="M509.95 398.501L509.82 400.971L462.54 428.441L461.66 427.861L460.54 428.511L460.61 427.171L509.95 398.501Z" fill="white"/>
<path d="M496.32 382.291C483.41 374.831 476.43 377.401 476.06 377.531L426.72 406.211C427.09 406.071 434.07 403.501 447 411.001C456.1 416.251 457.94 423.251 458.24 426.931L507.55 398.221C507.26 394.541 505.41 387.541 496.32 382.291Z" fill="url(#paint47_linear)"/>
<path d="M489.54 444.781L489.44 446.091L461.66 427.861L460.66 427.171L460.59 428.511L459.59 429.091L455.92 427.001L455.8 424.401L427 410.061L426.72 406.201C427.09 406.071 434.07 403.501 447 411.001C456.09 416.251 457.94 423.251 458.24 426.931C458.67 424.321 460.76 421.251 469.34 426.211C477.34 430.864 484.232 437.2 489.54 444.781Z" fill="url(#paint48_linear)"/>
<path d="M460 424.001L509.29 395.341C510.83 394.441 513.63 394.601 518.65 397.501C526.664 402.16 533.564 408.511 538.87 416.111L489.54 444.781C484.231 437.184 477.331 430.833 469.32 426.171C464.29 423.271 461.5 423.111 460 424.001Z" fill="url(#paint49_linear)"/>
<path d="M489.539 444.781L538.869 416.111L538.779 417.471L489.439 446.141L489.539 444.781Z" fill="white"/>
<g opacity="0.15">
<path opacity="0.15" d="M499.779 395.201C499.559 394.771 499.619 394.131 499.349 393.691C499.079 393.251 498.459 393.061 498.159 392.641C497.859 392.221 497.069 392.241 496.739 391.851C496.409 391.461 496.239 391.011 495.879 390.631C495.519 390.251 495.159 389.991 494.779 389.631C494.399 389.271 493.889 389.201 493.489 388.871C493.089 388.541 493.029 387.871 492.609 387.581C492.189 387.291 492.219 386.371 491.789 386.091C491.359 385.811 490.789 385.811 490.329 385.551C489.869 385.291 489.539 384.961 489.129 384.741C488.719 384.521 488.129 384.501 487.729 384.291C487.329 384.081 486.609 384.371 486.189 384.171C485.769 383.971 485.639 383.021 485.189 382.831C484.739 382.641 483.939 383.311 483.509 383.141C483.079 382.971 482.919 382.001 482.479 381.881C482.039 381.761 481.639 381.261 481.199 381.131C480.759 381.001 480.149 381.131 479.699 381.061C479.249 380.991 478.699 381.061 478.239 380.991C477.779 380.921 477.359 380.211 476.919 380.141C476.479 380.071 475.849 380.681 475.399 380.641V381.281" stroke="#4E7FFF" stroke-miterlimit="10" stroke-linecap="round"/>
<path opacity="0.15" d="M469.24 384.112C469.69 384.112 470.14 384.392 470.64 384.472C471.14 384.552 471.71 383.852 472.2 384.002C472.69 384.152 473.13 384.312 473.61 384.432C474.09 384.552 474.48 384.872 474.96 385.022C475.44 385.172 475.5 386.352 475.96 386.512C476.42 386.672 477.29 385.612 477.75 385.792C478.21 385.972 478.51 386.482 478.96 386.672C479.41 386.862 479.73 387.272 480.17 387.482C480.61 387.692 480.92 388.092 481.36 388.312C481.8 388.532 482.04 389.022 482.48 389.252C482.92 389.482 483.64 389.112 484.06 389.362C484.48 389.612 484.96 389.862 485.37 390.132C485.78 390.402 486.37 390.452 486.8 390.732C487.23 391.012 487.09 392.032 487.47 392.332C487.85 392.632 488.3 392.892 488.66 393.222C489.02 393.552 489.11 394.172 489.45 394.522C489.79 394.872 490.37 395.022 490.68 395.392C490.99 395.762 491.53 396.012 491.81 396.392C492.09 396.772 492.66 397.062 492.91 397.472C493.16 397.882 493.2 398.472 493.42 398.922" stroke="#4E7FFF" stroke-miterlimit="10" stroke-linecap="round"/>
<path opacity="0.15" d="M463.08 387.571C463.53 387.571 463.93 388.261 464.43 388.331C464.93 388.401 465.43 387.921 465.94 388.021C466.45 388.121 466.63 389.121 467.12 389.241C467.61 389.361 468.12 389.061 468.59 389.241C469.06 389.421 469.59 389.241 470.03 389.421C470.47 389.601 470.87 389.851 471.33 390.031C471.79 390.211 472.08 390.671 472.53 390.871C472.98 391.071 473.29 391.431 473.73 391.641C474.17 391.851 474.73 391.691 475.18 391.911C475.63 392.131 475.91 392.551 476.34 392.791C476.77 393.031 477.34 392.871 477.8 393.121C478.26 393.371 478.53 393.851 478.94 394.121C479.35 394.391 480.07 394.271 480.47 394.551C480.87 394.831 480.71 395.891 481.08 396.191C481.45 396.491 482.08 396.531 482.45 396.861C482.82 397.191 483.82 396.931 484.15 397.281C484.48 397.631 484.94 398.001 485.25 398.371C485.56 398.741 485.59 399.431 485.87 399.831C486.15 400.231 486.13 400.831 486.38 401.291C486.63 401.751 487.57 401.821 487.78 402.291" stroke="#4E7FFF" stroke-miterlimit="10" stroke-linecap="round"/>
<path opacity="0.15" d="M480.64 406.281C480.43 405.851 480.02 405.551 479.75 405.101C479.48 404.651 479.75 403.941 479.48 403.521C479.21 403.101 478.99 402.651 478.66 402.251C478.33 401.851 477.49 402.001 477.13 401.621C476.77 401.241 476.91 400.461 476.54 400.121C476.17 399.781 475.54 399.771 475.15 399.441C474.76 399.111 474.96 398.051 474.54 397.741C474.12 397.431 473.45 397.561 473.02 397.281C472.59 397.001 471.95 397.141 471.5 396.881C471.05 396.621 471.14 395.531 470.73 395.301C470.32 395.071 469.84 394.871 469.43 394.661C469.02 394.451 468.13 395.091 467.71 394.891C467.29 394.691 467.11 393.891 466.71 393.661C466.31 393.431 465.85 393.171 465.41 393.001C464.97 392.831 464.25 393.321 463.82 393.171C463.39 393.021 462.99 392.551 462.55 392.411C462.11 392.271 461.55 392.461 461.08 392.351C460.61 392.241 460.32 391.261 459.88 391.171C459.44 391.081 458.75 391.881 458.3 391.811C457.85 391.741 457.37 391.441 456.92 391.401C456.925 391.468 456.925 391.535 456.92 391.601" stroke="#4E7FFF" stroke-miterlimit="10" stroke-linecap="round"/>
<path opacity="0.15" d="M450.74 394.881C451.19 394.881 451.74 394.451 452.24 394.521C452.74 394.591 453 395.861 453.45 396.001C453.9 396.141 454.36 396.081 454.84 396.201C455.32 396.321 456.03 395.431 456.51 395.581C456.99 395.731 457.36 396.051 457.83 396.211C458.3 396.371 458.83 396.401 459.24 396.581C459.65 396.761 460.17 396.831 460.63 397.021C461.09 397.211 461.22 398.021 461.63 398.231L462.92 398.851C463.34 399.061 463.54 399.701 463.92 399.931C464.3 400.161 464.99 399.931 465.42 400.191C465.85 400.451 465.88 401.361 466.29 401.631C466.7 401.901 467.87 401.111 468.29 401.401C468.71 401.691 469.16 401.991 469.54 402.291C469.92 402.591 470.29 403.041 470.65 403.371C471.01 403.701 471.01 404.471 471.35 404.831C471.69 405.191 472.57 405.131 472.88 405.501C473.19 405.871 472.49 407.091 472.77 407.501C473.05 407.911 473.71 408.061 473.96 408.501C474.21 408.941 474.7 409.241 474.96 409.681" stroke="#4E7FFF" stroke-miterlimit="10" stroke-linecap="round"/>
<path opacity="0.15" d="M444.59 398.161C445.04 398.161 445.59 398.161 446.06 398.161C446.53 398.161 446.89 398.891 447.39 398.991C447.89 399.091 448.14 399.801 448.62 399.931C449.1 400.061 449.76 399.281 450.24 399.431C450.72 399.581 451.24 399.481 451.69 399.651C452.14 399.821 452.28 400.751 452.74 400.931C453.2 401.111 453.67 401.121 454.12 401.321C454.57 401.521 455.3 401.011 455.75 401.221C456.2 401.431 456.4 402.061 456.84 402.281C457.28 402.501 457.93 402.281 458.36 402.501C458.79 402.721 458.73 403.801 459.15 404.041C459.57 404.281 459.95 404.651 460.36 404.911C460.77 405.171 461.55 404.961 461.95 405.251C462.35 405.541 462.63 406.031 463.01 406.341C463.39 406.651 464.01 406.741 464.37 407.071C464.73 407.401 464.47 408.411 464.8 408.761C465.13 409.111 465.67 409.311 465.98 409.681C466.29 410.051 466.83 410.291 467.11 410.681C467.39 411.071 467.52 411.611 467.77 412.031C468.02 412.451 468.88 412.591 469.09 413.031" stroke="#4E7FFF" stroke-miterlimit="10" stroke-linecap="round"/>
</g>
<g opacity="0.15">
<path opacity="0.15" d="M482.34 413.712C482.77 413.832 483.34 413.442 483.85 413.622C484.36 413.802 484.85 413.622 485.33 413.862C485.81 414.102 485.86 414.862 486.33 415.132C486.8 415.402 487.1 415.662 487.54 415.912C487.98 416.162 488.9 415.612 489.32 415.912C489.74 416.212 490.19 416.442 490.61 416.722C491.03 417.002 491.52 417.202 491.93 417.482C492.34 417.762 492.59 418.322 492.99 418.622C493.39 418.922 493.73 419.342 494.12 419.622C494.51 419.902 494.56 420.702 494.95 421.012C495.34 421.322 495.95 421.362 496.35 421.672C496.75 421.982 497.35 422.112 497.69 422.432C498.03 422.752 498.85 422.672 499.22 423.002C499.59 423.332 499.92 423.772 500.28 424.112C500.64 424.452 500.39 425.462 500.73 425.812C501.07 426.162 501.58 426.402 501.92 426.812C502.26 427.222 502.77 427.422 503.09 427.812C503.41 428.202 504.09 428.322 504.38 428.692C504.67 429.062 504.23 430.172 504.53 430.542" stroke="#4E7FFF" stroke-miterlimit="10" stroke-linecap="round"/>
<path opacity="0.15" d="M488.7 409.381C489.13 409.491 489.39 410.201 489.88 410.381C490.37 410.561 490.88 410.381 491.33 410.621C491.78 410.861 492.18 410.991 492.64 411.231C493.1 411.471 493.39 411.821 493.83 412.081C494.27 412.341 494.63 412.701 495.06 412.961C495.49 413.221 496.06 413.191 496.52 413.471C496.98 413.751 497.06 414.471 497.52 414.761C497.98 415.051 498.96 414.471 499.37 414.761C499.78 415.051 500.02 415.601 500.42 415.901C500.82 416.201 500.95 416.901 501.34 417.171C501.73 417.441 502.44 417.441 502.82 417.751C503.2 418.061 503.33 418.751 503.7 419.051C504.07 419.351 504.63 419.541 505 419.871C505.37 420.201 505.81 420.491 506.17 420.871C506.53 421.251 506.51 421.981 506.86 422.331C507.21 422.681 507.43 423.181 507.77 423.531C508.11 423.881 509.06 423.721 509.39 424.081C509.72 424.441 510.25 424.691 510.57 425.081C510.89 425.471 511.35 425.781 511.66 426.151" stroke="#4E7FFF" stroke-miterlimit="10" stroke-linecap="round"/>
<path opacity="0.15" d="M494.83 405.312C494.83 405.312 494.83 405.782 494.83 405.792C495.311 405.889 495.785 406.016 496.25 406.172C496.67 406.322 496.82 407.172 497.25 407.402C497.68 407.632 498.38 407.212 498.83 407.452C499.28 407.692 499.59 408.042 500.04 408.292C500.49 408.542 501.28 408.202 501.71 408.462C502.14 408.722 502.24 409.532 502.71 409.802C503.18 410.072 503.89 409.882 504.3 410.162C504.71 410.442 504.88 411.162 505.3 411.412C505.72 411.662 505.64 412.642 506.04 412.942C506.44 413.242 507.36 412.942 507.75 413.202C508.14 413.462 508.27 414.202 508.65 414.492C509.03 414.782 509.59 414.952 509.97 415.282C510.35 415.612 510.73 415.952 511.09 416.282C511.45 416.612 511.48 417.352 511.84 417.692C512.2 418.032 513.3 417.692 513.64 418.012C513.98 418.332 514.3 418.822 514.64 419.172C514.98 419.522 515.14 420.172 515.47 420.482C515.8 420.792 515.54 421.782 515.86 422.152C516.18 422.522 516.71 422.762 517.01 423.152" stroke="#4E7FFF" stroke-miterlimit="10" stroke-linecap="round"/>
<path opacity="0.15" d="M501 402.431C501.43 402.541 501.69 403.191 502.18 403.371C502.67 403.551 503.55 402.501 504.03 402.721C504.51 402.941 504.3 404.311 504.75 404.541C505.2 404.771 506.09 404.081 506.53 404.331C506.97 404.581 507.02 405.491 507.45 405.751C507.88 406.011 508.54 405.911 508.96 406.181C509.38 406.451 509.63 407.011 510.04 407.291C510.45 407.571 511.18 407.431 511.59 407.721C512 408.011 512.1 408.721 512.5 409.041C512.9 409.361 513.43 409.491 513.82 409.801C514.21 410.111 514.48 410.601 514.82 410.921C515.16 411.241 516.02 411.081 516.4 411.411C516.78 411.741 516.97 412.301 517.33 412.641C517.69 412.981 517.6 413.841 517.95 414.191C518.3 414.541 518.68 414.881 519.03 415.191C519.38 415.501 519.82 415.841 520.15 416.191C520.48 416.541 521.15 416.691 521.44 417.051C521.73 417.411 522.1 417.841 522.44 418.201C522.78 418.561 523.44 418.701 523.75 419.071" stroke="#4E7FFF" stroke-miterlimit="10" stroke-linecap="round"/>
<path opacity="0.15" d="M507.31 398.181C507.74 398.291 508.19 398.641 508.68 398.821C509.17 399.001 509.2 400.011 509.68 400.231C510.16 400.451 510.47 400.701 510.93 400.941C511.39 401.181 511.93 401.091 512.35 401.341C512.77 401.591 513.09 402.061 513.52 402.341C513.95 402.621 514.67 402.411 515.08 402.681C515.49 402.951 516.01 403.121 516.42 403.401C516.83 403.681 517.25 403.991 517.65 404.281C518.05 404.571 518.25 405.181 518.65 405.481C519.05 405.781 519.9 405.531 520.29 405.841C520.68 406.151 520.95 406.651 521.29 406.971C521.63 407.291 521.84 407.891 522.21 408.221C522.58 408.551 522.65 409.221 523.01 409.581C523.37 409.941 523.72 410.301 524.08 410.641C524.44 410.981 525.67 410.481 526.01 410.821C526.35 411.161 526.43 411.821 526.77 412.211C527.11 412.601 527.63 412.811 527.96 413.211C528.29 413.611 528.57 414.061 528.89 414.421C529.21 414.781 529.41 415.331 529.71 415.701" stroke="#4E7FFF" stroke-miterlimit="10" stroke-linecap="round"/>
</g>
<path d="M601.696 323.54L600.436 322.81C599.78 322.475 599.053 322.3 598.316 322.3C597.579 322.3 596.853 322.475 596.196 322.81L593.866 324.17L592.586 323.42L568.486 337.42L567.996 337.15L546.506 349.64L547.066 349.96L542.286 356.35L543.996 357.35L554.996 354.56L555.556 354.89L577.056 342.39L576.576 342.12L600.676 328.12L599.386 327.38L601.716 326.03C601.973 325.942 602.195 325.776 602.353 325.556C602.511 325.335 602.595 325.071 602.595 324.8C602.595 324.529 602.511 324.265 602.353 324.044C602.195 323.823 601.973 323.658 601.716 323.57" fill="url(#paint50_linear)"/>
<path d="M586.776 321.43L583.996 323.03C584.217 322.9 584.47 322.834 584.726 322.84C586.546 322.84 588.726 325.6 588.726 327.99C588.757 328.333 588.698 328.678 588.556 328.991C588.414 329.305 588.194 329.577 587.916 329.78L590.716 328.15C591.195 327.858 591.588 327.444 591.853 326.95C592.119 326.456 592.247 325.9 592.226 325.34C592.226 323.21 590.416 321 588.226 321C587.71 321.005 587.204 321.142 586.756 321.4" fill="url(#paint51_linear)"/>
<path d="M585.887 321.91C585.496 321.635 585.039 321.469 584.563 321.429C584.087 321.388 583.608 321.475 583.177 321.68L558.477 336.03C558.909 335.828 559.387 335.743 559.862 335.783C560.338 335.824 560.794 335.988 561.187 336.26C562.337 336.98 563.299 337.963 563.994 339.127C564.69 340.292 565.098 341.606 565.187 342.96C565.24 343.457 565.157 343.96 564.948 344.414C564.738 344.868 564.409 345.257 563.997 345.54L588.697 331.19C589.098 330.9 589.415 330.508 589.614 330.054C589.813 329.6 589.886 329.102 589.827 328.61C589.744 327.262 589.343 325.952 588.659 324.788C587.974 323.624 587.024 322.638 585.887 321.91Z" fill="url(#paint52_linear)"/>
<path d="M545.306 357.32C547.049 356.307 547.047 353.051 545.302 350.048C543.557 347.044 540.729 345.43 538.986 346.443C537.243 347.456 537.245 350.712 538.99 353.715C540.736 356.719 543.563 358.333 545.306 357.32Z" fill="url(#paint53_linear)"/>
<path d="M561.176 335.61C560.729 335.295 560.207 335.105 559.662 335.058C559.118 335.01 558.571 335.108 558.076 335.34L538.996 346.44C539.491 346.208 540.038 346.11 540.582 346.158C541.127 346.205 541.649 346.395 542.096 346.71C543.401 347.539 544.491 348.665 545.276 349.997C546.062 351.328 546.521 352.827 546.616 354.37C546.685 354.933 546.601 355.504 546.372 356.024C546.143 356.543 545.778 356.991 545.316 357.32L564.406 346.23C564.874 345.894 565.242 345.438 565.471 344.91C565.7 344.381 565.781 343.801 565.706 343.23C565.605 341.692 565.142 340.201 564.355 338.876C563.568 337.552 562.478 336.433 561.176 335.61Z" fill="url(#paint54_linear)"/>
<path d="M542.086 347.36C540.706 346.59 539.496 346.75 538.826 347.62L532.506 355.77C532.619 355.646 532.775 355.57 532.942 355.557C533.109 355.544 533.275 355.595 533.406 355.7C533.723 355.899 533.988 356.17 534.179 356.492C534.37 356.814 534.482 357.176 534.506 357.55C534.506 358.01 534.306 358.29 533.996 358.33L544.206 356.88C545.326 356.72 546.066 355.7 546.046 354.06C545.962 352.71 545.56 351.398 544.871 350.234C544.183 349.069 543.228 348.084 542.086 347.36Z" fill="url(#paint55_linear)"/>
<path d="M534.188 358.261C534.608 358.016 534.607 357.23 534.185 356.504C533.763 355.778 533.081 355.388 532.66 355.632C532.24 355.876 532.241 356.663 532.663 357.388C533.085 358.114 533.767 358.505 534.188 358.261Z" fill="url(#paint56_linear)"/>
<path d="M531.556 356.73C531.318 356.867 531.14 357.088 531.056 357.35C530.985 357.567 530.981 357.801 531.046 358.021C531.111 358.241 531.24 358.435 531.418 358.58C531.596 358.724 531.813 358.811 532.042 358.829C532.27 358.846 532.498 358.795 532.696 358.68L533.996 357.93C534.076 357.868 534.139 357.787 534.179 357.694C534.219 357.602 534.236 357.5 534.226 357.4C534.207 357.124 534.123 356.857 533.983 356.619C533.842 356.382 533.648 356.18 533.416 356.03C533.335 355.975 533.241 355.941 533.143 355.932C533.045 355.924 532.946 355.94 532.856 355.98L531.556 356.74" fill="url(#paint57_linear)"/>
<path d="M581.886 324.41L569.066 331.86L565.126 329.58L577.946 322.13L581.886 324.41Z" fill="url(#paint58_linear)"/>
<path d="M581.886 324.41V326.36L569.066 333.81V331.86L581.886 324.41Z" fill="url(#paint59_linear)"/>
<path d="M569.066 331.86V333.81L565.116 331.53L565.126 329.58L569.066 331.86Z" fill="url(#paint60_linear)"/>
<path d="M34.8979 196.345C33.2072 196.85 31.7204 197.9 30.6581 199.34C29.5958 200.779 29.0144 202.531 29.0003 204.336C28.9861 206.14 29.5399 207.901 30.5796 209.358C31.6192 210.815 33.0893 211.889 34.7719 212.422L342.515 395.475C346.651 397.64 351.229 398.769 355.874 398.769C360.518 398.769 365.096 397.64 369.232 395.475L609.365 253.424C610.981 252.857 612.384 251.787 613.378 250.363C614.371 248.939 614.905 247.232 614.905 245.482C614.905 243.731 614.371 242.025 613.378 240.601C612.384 239.177 610.981 238.106 609.365 237.54L301.685 54.2934C297.56 52.1288 292.992 51 288.358 51C283.724 51 279.156 52.1288 275.031 54.2934L34.8979 196.345Z" fill="url(#paint61_linear)"/>
<path d="M34.7729 212.423L342.517 395.475C346.652 397.64 351.23 398.769 355.875 398.769C360.519 398.769 365.097 397.64 369.233 395.475L609.366 253.424C610.97 252.766 612.368 251.673 613.412 250.263C614.455 248.852 615.104 247.177 615.289 245.417V250.712C615.135 252.429 614.533 254.073 613.547 255.47C612.56 256.867 611.225 257.967 609.681 258.654L369.548 400.77C365.414 402.904 360.85 404.016 356.221 404.016C351.593 404.016 347.028 402.904 342.895 400.77L34.7729 217.459C33.2616 216.759 31.9582 215.662 30.9953 214.278C30.0324 212.894 29.4444 211.274 29.291 209.582L29.291 204.352C29.4119 206.078 29.9849 207.739 30.9496 209.159C31.9144 210.579 33.2352 211.707 34.7729 212.423Z" fill="url(#paint62_linear)"/>
<path d="M530.44 126C522.04 121.15 508.44 121.15 500.11 126C491.78 130.85 491.81 138.72 500.21 143.57C508.61 148.42 522.21 148.42 530.54 143.57C538.87 138.72 538.85 130.86 530.44 126Z" fill="url(#paint63_linear)"/>
<path d="M485.91 99.41C485.916 101.25 486.532 103.036 487.66 104.49C491.66 99.49 500.94 97.21 507.6 97.21C514.26 97.21 523.69 99.55 527.72 104.61C528.863 103.148 529.486 101.346 529.49 99.49V99.35C529.33 90.73 516.27 86.83 507.63 86.83C502.377 86.7339 497.184 87.9507 492.52 90.37C487.76 93.04 485.91 96.37 485.91 99.37V99.41Z" fill="url(#paint64_linear)"/>
<path d="M532.051 116.49C529.491 124.9 526.921 131.49 524.371 140.49C522.751 146.14 514.131 148.7 507.641 148.7C500.021 148.7 492.231 145.56 490.781 140.4C488.621 132.68 486.464 124.963 484.311 117.25C490.311 121.97 500.311 124.19 507.761 124.19C515.791 124.19 526.271 121.71 532.051 116.49Z" fill="url(#paint65_linear)"/>
<path d="M479 107.53V99.3999C479 110.83 496.34 116.06 507.8 116.06C519.26 116.06 536.34 110.84 536.38 99.5299V107.66C536.38 118.94 519.49 124.19 507.81 124.19C496.32 124.19 479 119 479 107.53Z" fill="url(#paint66_linear)"/>
<path d="M479 99.4001C479 88.0001 496.22 82.8401 507.61 82.8401C519 82.8401 536.38 88.0601 536.38 99.5001C536.38 110.94 519.19 116.06 507.8 116.06C496.41 116.06 479 110.84 479 99.4001ZM492.49 90.4001C488.09 92.8701 485.88 96.1501 485.88 99.4001C485.88 108.09 499.03 112.06 507.75 112.06C516.47 112.06 529.46 108.17 529.46 99.4801C529.46 90.7901 516.34 86.8301 507.63 86.8301C502.377 86.734 497.184 87.9508 492.52 90.3701" fill="url(#paint67_linear)"/>
<path d="M527.72 104.61C523.87 109.72 514.5 112.08 507.78 112.08C501.06 112.08 491.51 109.66 487.66 104.49C491.66 99.49 500.94 97.21 507.6 97.21C514.26 97.21 523.69 99.56 527.72 104.61Z" fill="url(#paint68_linear)"/>
<path d="M508.62 95.5401C508.62 95.5401 504.29 84.3301 514.37 79.0801C515.514 80.1174 516.419 81.3903 517.023 82.8111C517.627 84.2319 517.916 85.7668 517.87 87.3101C517.87 93.9201 508.62 95.5401 508.62 95.5401Z" fill="url(#paint69_linear)"/>
<path d="M517.33 103.21C517.33 103.21 524.33 101 524.33 93.4999C524.33 88.9199 520.33 85.4199 520.33 85.4199C520.33 85.4199 510.9 90.5099 510.9 94.9299C510.796 96.8529 511.389 98.7489 512.57 100.27C513.751 101.791 515.442 102.835 517.33 103.21Z" fill="url(#paint70_linear)"/>
<path d="M507.2 94.31C509 91.08 509.29 83.5 500.54 78C500.54 78 497 80.76 497 87.31C497 93.86 507.2 94.31 507.2 94.31Z" fill="url(#paint71_linear)"/>
<path d="M513.33 109.83C513.33 109.83 515.08 105.58 518.45 105.58C521.82 105.58 519.89 109 513.33 109.83Z" fill="url(#paint72_linear)"/>
<path d="M516.71 104.67C516.71 104.67 520.12 94.6701 526.87 94.3101C527.548 95.957 527.93 97.7104 528 99.4901C528 102 524.29 104.67 516.71 104.67Z" fill="url(#paint73_linear)"/>
<path d="M495.39 108.44C495.39 108.44 495.2 106 491.89 104.67C491.89 104.67 490.77 107.42 495.39 108.44Z" fill="url(#paint74_linear)"/>
<path d="M498.77 97.74C498.77 97.74 498.89 89.2 489.39 89.2C489.39 89.2 487.08 101.08 498.77 97.74Z" fill="url(#paint75_linear)"/>
<path d="M510.54 104.08C511.185 101.94 511.574 99.7313 511.7 97.5C511.7 92.75 501.45 87 501.45 87C500.03 87.9136 498.872 89.1818 498.092 90.6795C497.312 92.1771 496.935 93.8525 497 95.54C497 101.67 505.37 104.08 510.54 104.08Z" fill="url(#paint76_linear)"/>
<path d="M508.7 109.83C508.7 109.83 504.08 108.96 504.08 104.71C504.08 100.46 511.58 98.3301 511.58 98.3301C511.58 98.3301 515.33 99.4601 515.33 103.21C515.33 108.33 508.7 109.83 508.7 109.83Z" fill="url(#paint77_linear)"/>
<path d="M507.14 108C507.14 108 507 100.87 491.89 95.54C491.89 95.54 490.39 96.4 490.39 99.02C490.39 101.64 493.89 108 507.14 108Z" fill="url(#paint78_linear)"/>
<path d="M510.86 110.76C510.86 110.76 510.62 106.43 501.29 103.34C501.29 103.34 497.87 105.18 497.87 107.76C497.87 110.34 501.54 112.05 506.79 112.05C508.233 111.965 509.632 111.521 510.86 110.76Z" fill="url(#paint79_linear)"/>
<path d="M303.393 95.5309C303.559 95.5876 303.703 95.6945 303.804 95.8368C303.906 95.9791 303.961 96.1496 303.961 96.3245C303.961 96.4994 303.906 96.6699 303.804 96.8122C303.703 96.9545 303.559 97.0614 303.393 97.118L271.897 115.428C271.473 115.644 271.004 115.757 270.529 115.757C270.053 115.757 269.585 115.644 269.161 115.428L244.574 101.234C244.409 101.178 244.265 101.071 244.163 100.928C244.062 100.786 244.007 100.616 244.007 100.441C244.007 100.266 244.062 100.095 244.163 99.9529C244.265 99.8106 244.409 99.7037 244.574 99.6471L276.077 81.3374C276.504 81.1157 276.977 81 277.458 81C277.939 81 278.412 81.1157 278.839 81.3374L303.393 95.5309Z" fill="url(#paint80_linear)"/>
<path d="M303.406 97.1373L271.897 115.428C271.473 115.644 271.005 115.757 270.529 115.757C270.054 115.757 269.585 115.644 269.161 115.428L244.574 101.234C244.416 101.164 244.279 101.053 244.179 100.912C244.078 100.771 244.016 100.606 244 100.434V102.608C244.016 102.78 244.077 102.944 244.178 103.084C244.279 103.223 244.416 103.333 244.574 103.402L269.161 117.602C269.585 117.815 270.052 117.926 270.526 117.926C271 117.926 271.467 117.815 271.89 117.602L303.406 99.2856C303.567 99.2203 303.707 99.1126 303.812 98.974C303.916 98.8354 303.981 98.6711 304 98.4986V96.3308C303.985 96.5068 303.921 96.6752 303.817 96.8174C303.712 96.9597 303.57 97.0703 303.406 97.1373Z" fill="url(#paint81_linear)"/>
<path d="M257.393 123.531C257.559 123.588 257.703 123.694 257.804 123.837C257.906 123.979 257.961 124.15 257.961 124.324C257.961 124.499 257.906 124.67 257.804 124.812C257.703 124.954 257.559 125.061 257.393 125.118L225.897 143.428C225.473 143.644 225.004 143.757 224.529 143.757C224.053 143.757 223.585 143.644 223.161 143.428L198.574 129.234C198.409 129.178 198.265 129.071 198.163 128.928C198.062 128.786 198.007 128.616 198.007 128.441C198.007 128.266 198.062 128.095 198.163 127.953C198.265 127.811 198.409 127.704 198.574 127.647L230.077 109.337C230.504 109.116 230.977 109 231.458 109C231.939 109 232.412 109.116 232.839 109.337L257.393 123.531Z" fill="url(#paint82_linear)"/>
<path d="M257.406 125.137L225.897 143.428C225.473 143.644 225.005 143.757 224.529 143.757C224.054 143.757 223.585 143.644 223.161 143.428L198.574 129.234C198.416 129.164 198.279 129.053 198.179 128.912C198.078 128.771 198.016 128.606 198 128.434V130.608C198.016 130.78 198.077 130.944 198.178 131.084C198.279 131.223 198.416 131.333 198.574 131.402L223.161 145.602C223.585 145.815 224.052 145.926 224.526 145.926C225 145.926 225.467 145.815 225.89 145.602L257.406 127.286C257.567 127.22 257.707 127.113 257.812 126.974C257.916 126.835 257.981 126.671 258 126.499V124.331C257.985 124.507 257.921 124.675 257.817 124.817C257.712 124.96 257.57 125.07 257.406 125.137Z" fill="url(#paint83_linear)"/>
<path d="M257.393 123.531C257.559 123.588 257.703 123.694 257.804 123.837C257.906 123.979 257.961 124.15 257.961 124.324C257.961 124.499 257.906 124.67 257.804 124.812C257.703 124.954 257.559 125.061 257.393 125.118L225.897 143.428C225.473 143.644 225.004 143.757 224.529 143.757C224.053 143.757 223.585 143.644 223.161 143.428L198.574 129.234C198.409 129.178 198.265 129.071 198.163 128.928C198.062 128.786 198.007 128.616 198.007 128.441C198.007 128.266 198.062 128.095 198.163 127.953C198.265 127.811 198.409 127.704 198.574 127.647L230.077 109.337C230.504 109.116 230.977 109 231.458 109C231.939 109 232.412 109.116 232.839 109.337L257.393 123.531Z" fill="url(#paint84_linear)"/>
<path d="M257.406 125.137L225.897 143.428C225.473 143.644 225.005 143.757 224.529 143.757C224.054 143.757 223.585 143.644 223.161 143.428L198.574 129.234C198.416 129.164 198.279 129.053 198.179 128.912C198.078 128.771 198.016 128.606 198 128.434V130.608C198.016 130.78 198.077 130.944 198.178 131.084C198.279 131.223 198.416 131.333 198.574 131.402L223.161 145.602C223.585 145.815 224.052 145.926 224.526 145.926C225 145.926 225.467 145.815 225.89 145.602L257.406 127.286C257.567 127.22 257.707 127.113 257.812 126.974C257.916 126.835 257.981 126.671 258 126.499V124.331C257.985 124.507 257.921 124.675 257.817 124.817C257.712 124.96 257.57 125.07 257.406 125.137Z" fill="url(#paint85_linear)"/>
<path d="M212.393 147.531C212.559 147.588 212.703 147.694 212.804 147.837C212.906 147.979 212.961 148.15 212.961 148.324C212.961 148.499 212.906 148.67 212.804 148.812C212.703 148.954 212.559 149.061 212.393 149.118L180.897 167.428C180.473 167.644 180.004 167.757 179.529 167.757C179.053 167.757 178.585 167.644 178.161 167.428L153.574 153.234C153.409 153.178 153.265 153.071 153.163 152.928C153.062 152.786 153.007 152.616 153.007 152.441C153.007 152.266 153.062 152.095 153.163 151.953C153.265 151.811 153.409 151.704 153.574 151.647L185.077 133.337C185.504 133.116 185.977 133 186.458 133C186.939 133 187.412 133.116 187.839 133.337L212.393 147.531Z" fill="url(#paint86_linear)"/>
<path d="M212.406 149.138L180.897 167.428C180.473 167.644 180.005 167.757 179.529 167.757C179.054 167.757 178.585 167.644 178.161 167.428L153.574 153.234C153.416 153.164 153.279 153.053 153.179 152.912C153.078 152.772 153.016 152.607 153 152.434V154.608C153.016 154.78 153.077 154.944 153.178 155.084C153.279 155.223 153.416 155.333 153.574 155.402L178.161 169.602C178.585 169.815 179.052 169.926 179.526 169.926C180 169.926 180.467 169.815 180.89 169.602L212.406 151.286C212.567 151.221 212.707 151.113 212.812 150.974C212.916 150.836 212.981 150.671 213 150.499V148.331C212.985 148.507 212.921 148.675 212.817 148.818C212.712 148.96 212.57 149.071 212.406 149.138Z" fill="url(#paint87_linear)"/>
<path d="M290.393 245.531C290.559 245.588 290.703 245.694 290.804 245.837C290.906 245.979 290.961 246.15 290.961 246.324C290.961 246.499 290.906 246.67 290.804 246.812C290.703 246.954 290.559 247.061 290.393 247.118L258.897 265.428C258.473 265.644 258.004 265.757 257.529 265.757C257.053 265.757 256.585 265.644 256.161 265.428L231.574 251.234C231.409 251.178 231.265 251.071 231.163 250.928C231.062 250.786 231.007 250.616 231.007 250.441C231.007 250.266 231.062 250.095 231.163 249.953C231.265 249.811 231.409 249.704 231.574 249.647L263.077 231.337C263.504 231.116 263.977 231 264.458 231C264.939 231 265.412 231.116 265.839 231.337L290.393 245.531Z" fill="url(#paint88_linear)"/>
<path d="M290.406 247.138L258.897 265.428C258.473 265.644 258.005 265.757 257.529 265.757C257.054 265.757 256.585 265.644 256.161 265.428L231.574 251.234C231.416 251.164 231.279 251.053 231.179 250.912C231.078 250.772 231.016 250.607 231 250.434V252.608C231.016 252.78 231.077 252.944 231.178 253.084C231.279 253.223 231.416 253.333 231.574 253.402L256.161 267.602C256.585 267.815 257.052 267.926 257.526 267.926C258 267.926 258.467 267.815 258.89 267.602L290.406 249.286C290.567 249.221 290.707 249.113 290.812 248.974C290.916 248.836 290.981 248.671 291 248.499V246.331C290.985 246.507 290.921 246.675 290.817 246.818C290.712 246.96 290.57 247.071 290.406 247.138Z" fill="url(#paint89_linear)"/>
<path d="M333.393 218.531C333.559 218.588 333.703 218.694 333.804 218.837C333.906 218.979 333.961 219.15 333.961 219.324C333.961 219.499 333.906 219.67 333.804 219.812C333.703 219.954 333.559 220.061 333.393 220.118L301.897 238.428C301.473 238.644 301.004 238.757 300.529 238.757C300.053 238.757 299.585 238.644 299.161 238.428L274.574 224.234C274.409 224.178 274.265 224.071 274.163 223.928C274.062 223.786 274.007 223.616 274.007 223.441C274.007 223.266 274.062 223.095 274.163 222.953C274.265 222.811 274.409 222.704 274.574 222.647L306.077 204.337C306.504 204.116 306.977 204 307.458 204C307.939 204 308.412 204.116 308.839 204.337L333.393 218.531Z" fill="url(#paint90_linear)"/>
<path d="M333.406 220.138L301.897 238.428C301.473 238.644 301.005 238.757 300.529 238.757C300.054 238.757 299.585 238.644 299.161 238.428L274.574 224.234C274.416 224.164 274.279 224.053 274.179 223.912C274.078 223.772 274.016 223.607 274 223.434V225.608C274.016 225.78 274.077 225.944 274.178 226.084C274.279 226.223 274.416 226.333 274.574 226.402L299.161 240.602C299.585 240.815 300.052 240.926 300.526 240.926C301 240.926 301.467 240.815 301.89 240.602L333.406 222.286C333.567 222.221 333.707 222.113 333.812 221.974C333.916 221.836 333.981 221.671 334 221.499V219.331C333.985 219.507 333.921 219.675 333.817 219.818C333.712 219.96 333.57 220.071 333.406 220.138Z" fill="url(#paint91_linear)"/>
<path d="M466.393 244.531C466.559 244.588 466.703 244.694 466.804 244.837C466.906 244.979 466.961 245.15 466.961 245.324C466.961 245.499 466.906 245.67 466.804 245.812C466.703 245.954 466.559 246.061 466.393 246.118L434.897 264.428C434.473 264.644 434.004 264.757 433.529 264.757C433.053 264.757 432.585 264.644 432.161 264.428L407.574 250.234C407.409 250.178 407.265 250.071 407.163 249.928C407.062 249.786 407.007 249.616 407.007 249.441C407.007 249.266 407.062 249.095 407.163 248.953C407.265 248.811 407.409 248.704 407.574 248.647L439.077 230.337C439.504 230.116 439.977 230 440.458 230C440.939 230 441.412 230.116 441.839 230.337L466.393 244.531Z" fill="url(#paint92_linear)"/>
<path d="M466.406 246.138L434.897 264.428C434.473 264.644 434.005 264.757 433.529 264.757C433.054 264.757 432.585 264.644 432.161 264.428L407.574 250.234C407.416 250.164 407.279 250.053 407.179 249.912C407.078 249.772 407.016 249.607 407 249.434V251.608C407.016 251.78 407.077 251.944 407.178 252.084C407.279 252.223 407.416 252.333 407.574 252.402L432.161 266.602C432.585 266.815 433.052 266.926 433.526 266.926C434 266.926 434.467 266.815 434.89 266.602L466.406 248.286C466.567 248.221 466.707 248.113 466.812 247.974C466.916 247.836 466.981 247.671 467 247.499V245.331C466.985 245.507 466.921 245.675 466.817 245.818C466.712 245.96 466.57 246.071 466.406 246.138Z" fill="url(#paint93_linear)"/>
<path d="M294.393 143.531C294.559 143.588 294.703 143.694 294.804 143.837C294.906 143.979 294.961 144.15 294.961 144.324C294.961 144.499 294.906 144.67 294.804 144.812C294.703 144.954 294.559 145.061 294.393 145.118L262.897 163.428C262.473 163.644 262.004 163.757 261.529 163.757C261.053 163.757 260.585 163.644 260.161 163.428L235.574 149.234C235.409 149.178 235.265 149.071 235.163 148.928C235.062 148.786 235.007 148.616 235.007 148.441C235.007 148.266 235.062 148.095 235.163 147.953C235.265 147.811 235.409 147.704 235.574 147.647L267.077 129.337C267.504 129.116 267.977 129 268.458 129C268.939 129 269.412 129.116 269.839 129.337L294.393 143.531Z" fill="url(#paint94_linear)"/>
<path d="M294.406 145.138L262.897 163.428C262.473 163.644 262.005 163.757 261.529 163.757C261.054 163.757 260.585 163.644 260.161 163.428L235.574 149.234C235.416 149.164 235.279 149.053 235.179 148.912C235.078 148.772 235.016 148.607 235 148.434V150.608C235.016 150.78 235.077 150.944 235.178 151.084C235.279 151.223 235.416 151.333 235.574 151.402L260.161 165.602C260.585 165.815 261.052 165.926 261.526 165.926C262 165.926 262.467 165.815 262.89 165.602L294.406 147.286C294.567 147.221 294.707 147.113 294.812 146.974C294.916 146.836 294.981 146.671 295 146.499V144.331C294.985 144.507 294.921 144.675 294.817 144.818C294.712 144.96 294.57 145.071 294.406 145.138Z" fill="url(#paint95_linear)"/>
<path d="M251.393 169.531C251.559 169.588 251.703 169.694 251.804 169.837C251.906 169.979 251.961 170.15 251.961 170.324C251.961 170.499 251.906 170.67 251.804 170.812C251.703 170.954 251.559 171.061 251.393 171.118L219.897 189.428C219.473 189.644 219.004 189.757 218.529 189.757C218.053 189.757 217.585 189.644 217.161 189.428L192.574 175.234C192.409 175.178 192.265 175.071 192.163 174.928C192.062 174.786 192.007 174.616 192.007 174.441C192.007 174.266 192.062 174.095 192.163 173.953C192.265 173.811 192.409 173.704 192.574 173.647L224.077 155.337C224.504 155.116 224.977 155 225.458 155C225.939 155 226.412 155.116 226.839 155.337L251.393 169.531Z" fill="url(#paint96_linear)"/>
<path d="M251.406 171.138L219.897 189.428C219.473 189.644 219.005 189.757 218.529 189.757C218.054 189.757 217.585 189.644 217.161 189.428L192.574 175.234C192.416 175.164 192.279 175.053 192.179 174.912C192.078 174.772 192.016 174.607 192 174.434V176.608C192.016 176.78 192.077 176.944 192.178 177.084C192.279 177.223 192.416 177.333 192.574 177.402L217.161 191.602C217.585 191.815 218.052 191.926 218.526 191.926C219 191.926 219.467 191.815 219.89 191.602L251.406 173.286C251.567 173.221 251.707 173.113 251.812 172.974C251.916 172.836 251.981 172.671 252 172.499V170.331C251.985 170.507 251.921 170.675 251.817 170.818C251.712 170.96 251.57 171.071 251.406 171.138Z" fill="url(#paint97_linear)"/>
<path d="M379.393 192.531C379.559 192.588 379.703 192.694 379.804 192.837C379.906 192.979 379.961 193.15 379.961 193.324C379.961 193.499 379.906 193.67 379.804 193.812C379.703 193.954 379.559 194.061 379.393 194.118L347.897 212.428C347.473 212.644 347.004 212.757 346.529 212.757C346.053 212.757 345.585 212.644 345.161 212.428L320.574 198.234C320.409 198.178 320.265 198.071 320.163 197.928C320.062 197.786 320.007 197.616 320.007 197.441C320.007 197.266 320.062 197.095 320.163 196.953C320.265 196.811 320.409 196.704 320.574 196.647L352.077 178.337C352.504 178.116 352.977 178 353.458 178C353.939 178 354.412 178.116 354.839 178.337L379.393 192.531Z" fill="url(#paint98_linear)"/>
<path d="M379.406 194.138L347.897 212.428C347.473 212.644 347.005 212.757 346.529 212.757C346.054 212.757 345.585 212.644 345.161 212.428L320.574 198.234C320.416 198.164 320.279 198.053 320.179 197.912C320.078 197.772 320.016 197.607 320 197.434V199.608C320.016 199.78 320.077 199.944 320.178 200.084C320.279 200.223 320.416 200.333 320.574 200.402L345.161 214.602C345.585 214.815 346.052 214.926 346.526 214.926C347 214.926 347.467 214.815 347.89 214.602L379.406 196.286C379.567 196.221 379.707 196.113 379.812 195.974C379.916 195.836 379.981 195.671 380 195.499V193.331C379.985 193.507 379.921 193.675 379.817 193.818C379.712 193.96 379.57 194.071 379.406 194.138Z" fill="url(#paint99_linear)"/>
<path d="M421.393 329.531C421.559 329.588 421.703 329.694 421.804 329.837C421.906 329.979 421.961 330.15 421.961 330.324C421.961 330.499 421.906 330.67 421.804 330.812C421.703 330.954 421.559 331.061 421.393 331.118L389.897 349.428C389.473 349.644 389.004 349.757 388.529 349.757C388.053 349.757 387.585 349.644 387.161 349.428L362.574 335.234C362.409 335.178 362.265 335.071 362.163 334.928C362.062 334.786 362.007 334.616 362.007 334.441C362.007 334.266 362.062 334.095 362.163 333.953C362.265 333.811 362.409 333.704 362.574 333.647L394.077 315.337C394.504 315.116 394.977 315 395.458 315C395.939 315 396.412 315.116 396.839 315.337L421.393 329.531Z" fill="url(#paint100_linear)"/>
<path d="M421.406 331.138L389.897 349.428C389.473 349.644 389.005 349.757 388.529 349.757C388.054 349.757 387.585 349.644 387.161 349.428L362.574 335.234C362.416 335.164 362.279 335.053 362.179 334.912C362.078 334.772 362.016 334.607 362 334.434V336.608C362.016 336.78 362.077 336.944 362.178 337.084C362.279 337.223 362.416 337.333 362.574 337.402L387.161 351.602C387.585 351.815 388.052 351.926 388.526 351.926C389 351.926 389.467 351.815 389.89 351.602L421.406 333.286C421.567 333.221 421.707 333.113 421.812 332.974C421.916 332.836 421.981 332.671 422 332.499V330.331C421.985 330.507 421.921 330.675 421.817 330.818C421.712 330.96 421.57 331.071 421.406 331.138Z" fill="url(#paint101_linear)"/>
<path d="M464.393 302.531C464.559 302.588 464.703 302.694 464.804 302.837C464.906 302.979 464.961 303.15 464.961 303.324C464.961 303.499 464.906 303.67 464.804 303.812C464.703 303.954 464.559 304.061 464.393 304.118L432.897 322.428C432.473 322.644 432.004 322.757 431.529 322.757C431.053 322.757 430.585 322.644 430.161 322.428L405.574 308.234C405.409 308.178 405.265 308.071 405.163 307.928C405.062 307.786 405.007 307.616 405.007 307.441C405.007 307.266 405.062 307.095 405.163 306.953C405.265 306.811 405.409 306.704 405.574 306.647L437.077 288.337C437.504 288.116 437.977 288 438.458 288C438.939 288 439.412 288.116 439.839 288.337L464.393 302.531Z" fill="url(#paint102_linear)"/>
<path d="M464.406 304.138L432.897 322.428C432.473 322.644 432.005 322.757 431.529 322.757C431.054 322.757 430.585 322.644 430.161 322.428L405.574 308.234C405.416 308.164 405.279 308.053 405.179 307.912C405.078 307.772 405.016 307.607 405 307.434V309.608C405.016 309.78 405.077 309.944 405.178 310.084C405.279 310.223 405.416 310.333 405.574 310.402L430.161 324.602C430.585 324.815 431.052 324.926 431.526 324.926C432 324.926 432.467 324.815 432.89 324.602L464.406 306.286C464.567 306.221 464.707 306.113 464.812 305.974C464.916 305.836 464.981 305.671 465 305.499V303.331C464.985 303.507 464.921 303.675 464.817 303.818C464.712 303.96 464.57 304.071 464.406 304.138Z" fill="url(#paint103_linear)"/>
<path d="M510.393 276.531C510.559 276.588 510.703 276.694 510.804 276.837C510.906 276.979 510.961 277.15 510.961 277.324C510.961 277.499 510.906 277.67 510.804 277.812C510.703 277.954 510.559 278.061 510.393 278.118L478.897 296.428C478.473 296.644 478.004 296.757 477.529 296.757C477.053 296.757 476.585 296.644 476.161 296.428L451.574 282.234C451.409 282.178 451.265 282.071 451.163 281.928C451.062 281.786 451.007 281.616 451.007 281.441C451.007 281.266 451.062 281.095 451.163 280.953C451.265 280.811 451.409 280.704 451.574 280.647L483.077 262.337C483.504 262.116 483.977 262 484.458 262C484.939 262 485.412 262.116 485.839 262.337L510.393 276.531Z" fill="url(#paint104_linear)"/>
<path d="M510.406 278.138L478.897 296.428C478.473 296.644 478.005 296.757 477.529 296.757C477.054 296.757 476.585 296.644 476.161 296.428L451.574 282.234C451.416 282.164 451.279 282.053 451.179 281.912C451.078 281.772 451.016 281.607 451 281.434V283.608C451.016 283.78 451.077 283.944 451.178 284.084C451.279 284.223 451.416 284.333 451.574 284.402L476.161 298.602C476.585 298.815 477.052 298.926 477.526 298.926C478 298.926 478.467 298.815 478.89 298.602L510.406 280.286C510.567 280.221 510.707 280.113 510.812 279.974C510.916 279.836 510.981 279.671 511 279.499V277.331C510.985 277.507 510.921 277.675 510.817 277.818C510.712 277.96 510.57 278.071 510.406 278.138Z" fill="url(#paint105_linear)"/>
<path d="M376.393 357.531C376.559 357.588 376.703 357.694 376.804 357.837C376.906 357.979 376.961 358.15 376.961 358.324C376.961 358.499 376.906 358.67 376.804 358.812C376.703 358.954 376.559 359.061 376.393 359.118L344.897 377.428C344.473 377.644 344.004 377.757 343.529 377.757C343.053 377.757 342.585 377.644 342.161 377.428L317.574 363.234C317.409 363.178 317.265 363.071 317.163 362.928C317.062 362.786 317.007 362.616 317.007 362.441C317.007 362.266 317.062 362.095 317.163 361.953C317.265 361.811 317.409 361.704 317.574 361.647L349.077 343.337C349.504 343.116 349.977 343 350.458 343C350.939 343 351.412 343.116 351.839 343.337L376.393 357.531Z" fill="url(#paint106_linear)"/>
<path d="M376.406 359.138L344.897 377.428C344.473 377.644 344.005 377.757 343.529 377.757C343.054 377.757 342.585 377.644 342.161 377.428L317.574 363.234C317.416 363.164 317.279 363.053 317.179 362.912C317.078 362.772 317.016 362.607 317 362.434V364.608C317.016 364.78 317.077 364.944 317.178 365.084C317.279 365.223 317.416 365.333 317.574 365.402L342.161 379.602C342.585 379.815 343.052 379.926 343.526 379.926C344 379.926 344.467 379.815 344.89 379.602L376.406 361.286C376.567 361.221 376.707 361.113 376.812 360.974C376.916 360.836 376.981 360.671 377 360.499V358.331C376.985 358.507 376.921 358.675 376.817 358.818C376.712 358.96 376.57 359.071 376.406 359.138Z" fill="url(#paint107_linear)"/>
<path d="M341.393 117.531C341.559 117.588 341.703 117.694 341.804 117.837C341.906 117.979 341.961 118.15 341.961 118.324C341.961 118.499 341.906 118.67 341.804 118.812C341.703 118.954 341.559 119.061 341.393 119.118L309.897 137.428C309.473 137.644 309.004 137.757 308.529 137.757C308.053 137.757 307.585 137.644 307.161 137.428L282.574 123.234C282.409 123.178 282.265 123.071 282.163 122.928C282.062 122.786 282.007 122.616 282.007 122.441C282.007 122.266 282.062 122.095 282.163 121.953C282.265 121.811 282.409 121.704 282.574 121.647L314.077 103.337C314.504 103.116 314.977 103 315.458 103C315.939 103 316.412 103.116 316.839 103.337L341.393 117.531Z" fill="url(#paint108_linear)"/>
<path d="M341.406 119.137L309.897 137.428C309.473 137.644 309.005 137.757 308.529 137.757C308.054 137.757 307.585 137.644 307.161 137.428L282.574 123.234C282.416 123.164 282.279 123.053 282.179 122.912C282.078 122.771 282.016 122.606 282 122.434V124.608C282.016 124.78 282.077 124.944 282.178 125.084C282.279 125.223 282.416 125.333 282.574 125.402L307.161 139.602C307.585 139.815 308.052 139.926 308.526 139.926C309 139.926 309.467 139.815 309.89 139.602L341.406 121.286C341.567 121.22 341.707 121.113 341.812 120.974C341.916 120.835 341.981 120.671 342 120.499V118.331C341.985 118.507 341.921 118.675 341.817 118.817C341.712 118.96 341.57 119.07 341.406 119.137Z" fill="url(#paint109_linear)"/>
<path d="M379.393 141.531C379.559 141.588 379.703 141.694 379.804 141.837C379.906 141.979 379.961 142.15 379.961 142.324C379.961 142.499 379.906 142.67 379.804 142.812C379.703 142.954 379.559 143.061 379.393 143.118L347.897 161.428C347.473 161.644 347.004 161.757 346.529 161.757C346.053 161.757 345.585 161.644 345.161 161.428L320.574 147.234C320.409 147.178 320.265 147.071 320.163 146.928C320.062 146.786 320.007 146.616 320.007 146.441C320.007 146.266 320.062 146.095 320.163 145.953C320.265 145.811 320.409 145.704 320.574 145.647L352.077 127.337C352.504 127.116 352.977 127 353.458 127C353.939 127 354.412 127.116 354.839 127.337L379.393 141.531Z" fill="url(#paint110_linear)"/>
<path d="M379.406 143.138L347.897 161.428C347.473 161.644 347.005 161.757 346.529 161.757C346.054 161.757 345.585 161.644 345.161 161.428L320.574 147.234C320.416 147.164 320.279 147.053 320.179 146.912C320.078 146.772 320.016 146.607 320 146.434V148.608C320.016 148.78 320.077 148.944 320.178 149.084C320.279 149.223 320.416 149.333 320.574 149.402L345.161 163.602C345.585 163.815 346.052 163.926 346.526 163.926C347 163.926 347.467 163.815 347.89 163.602L379.406 145.286C379.567 145.221 379.707 145.113 379.812 144.974C379.916 144.836 379.981 144.671 380 144.499V142.331C379.985 142.507 379.921 142.675 379.817 142.818C379.712 142.96 379.57 143.071 379.406 143.138Z" fill="url(#paint111_linear)"/>
<path d="M419.393 165.531C419.559 165.588 419.703 165.694 419.804 165.837C419.906 165.979 419.961 166.15 419.961 166.324C419.961 166.499 419.906 166.67 419.804 166.812C419.703 166.954 419.559 167.061 419.393 167.118L387.897 185.428C387.473 185.644 387.004 185.757 386.529 185.757C386.053 185.757 385.585 185.644 385.161 185.428L360.574 171.234C360.409 171.178 360.265 171.071 360.163 170.928C360.062 170.786 360.007 170.616 360.007 170.441C360.007 170.266 360.062 170.095 360.163 169.953C360.265 169.811 360.409 169.704 360.574 169.647L392.077 151.337C392.504 151.116 392.977 151 393.458 151C393.939 151 394.412 151.116 394.839 151.337L419.393 165.531Z" fill="url(#paint112_linear)"/>
<path d="M419.406 167.138L387.897 185.428C387.473 185.644 387.005 185.757 386.529 185.757C386.054 185.757 385.585 185.644 385.161 185.428L360.574 171.234C360.416 171.164 360.279 171.053 360.179 170.912C360.078 170.772 360.016 170.607 360 170.434V172.608C360.016 172.78 360.077 172.944 360.178 173.084C360.279 173.223 360.416 173.333 360.574 173.402L385.161 187.602C385.585 187.815 386.052 187.926 386.526 187.926C387 187.926 387.467 187.815 387.89 187.602L419.406 169.286C419.567 169.221 419.707 169.113 419.812 168.974C419.916 168.836 419.981 168.671 420 168.499V166.331C419.985 166.507 419.921 166.675 419.817 166.818C419.712 166.96 419.57 167.071 419.406 167.138Z" fill="url(#paint113_linear)"/>
<path d="M462.393 191.531C462.559 191.588 462.703 191.694 462.804 191.837C462.906 191.979 462.961 192.15 462.961 192.324C462.961 192.499 462.906 192.67 462.804 192.812C462.703 192.954 462.559 193.061 462.393 193.118L430.897 211.428C430.473 211.644 430.004 211.757 429.529 211.757C429.053 211.757 428.585 211.644 428.161 211.428L403.574 197.234C403.409 197.178 403.265 197.071 403.163 196.928C403.062 196.786 403.007 196.616 403.007 196.441C403.007 196.266 403.062 196.095 403.163 195.953C403.265 195.811 403.409 195.704 403.574 195.647L435.077 177.337C435.504 177.116 435.977 177 436.458 177C436.939 177 437.412 177.116 437.839 177.337L462.393 191.531Z" fill="url(#paint114_linear)"/>
<path d="M462.406 193.138L430.897 211.428C430.473 211.644 430.005 211.757 429.529 211.757C429.054 211.757 428.585 211.644 428.161 211.428L403.574 197.234C403.416 197.164 403.279 197.053 403.179 196.912C403.078 196.772 403.016 196.607 403 196.434V198.608C403.016 198.78 403.077 198.944 403.178 199.084C403.279 199.223 403.416 199.333 403.574 199.402L428.161 213.602C428.585 213.815 429.052 213.926 429.526 213.926C430 213.926 430.467 213.815 430.89 213.602L462.406 195.286C462.567 195.221 462.707 195.113 462.812 194.974C462.916 194.836 462.981 194.671 463 194.499V192.331C462.985 192.507 462.921 192.675 462.817 192.818C462.712 192.96 462.57 193.071 462.406 193.138Z" fill="url(#paint115_linear)"/>
<path d="M506.393 216.531C506.559 216.588 506.703 216.694 506.804 216.837C506.906 216.979 506.961 217.15 506.961 217.324C506.961 217.499 506.906 217.67 506.804 217.812C506.703 217.954 506.559 218.061 506.393 218.118L474.897 236.428C474.473 236.644 474.004 236.757 473.529 236.757C473.053 236.757 472.585 236.644 472.161 236.428L447.574 222.234C447.409 222.178 447.265 222.071 447.163 221.928C447.062 221.786 447.007 221.616 447.007 221.441C447.007 221.266 447.062 221.095 447.163 220.953C447.265 220.811 447.409 220.704 447.574 220.647L479.077 202.337C479.504 202.116 479.977 202 480.458 202C480.939 202 481.412 202.116 481.839 202.337L506.393 216.531Z" fill="url(#paint116_linear)"/>
<path d="M506.406 218.138L474.897 236.428C474.473 236.644 474.005 236.757 473.529 236.757C473.054 236.757 472.585 236.644 472.161 236.428L447.574 222.234C447.416 222.164 447.279 222.053 447.179 221.912C447.078 221.772 447.016 221.607 447 221.434V223.608C447.016 223.78 447.077 223.944 447.178 224.084C447.279 224.223 447.416 224.333 447.574 224.402L472.161 238.602C472.585 238.815 473.052 238.926 473.526 238.926C474 238.926 474.467 238.815 474.89 238.602L506.406 220.286C506.567 220.221 506.707 220.113 506.812 219.974C506.916 219.836 506.981 219.671 507 219.499V217.331C506.985 217.507 506.921 217.675 506.817 217.818C506.712 217.96 506.57 218.071 506.406 218.138Z" fill="url(#paint117_linear)"/>
<path d="M555.393 246.531C555.559 246.588 555.703 246.694 555.804 246.837C555.906 246.979 555.961 247.15 555.961 247.324C555.961 247.499 555.906 247.67 555.804 247.812C555.703 247.954 555.559 248.061 555.393 248.118L523.897 266.428C523.473 266.644 523.004 266.757 522.529 266.757C522.053 266.757 521.585 266.644 521.161 266.428L496.574 252.234C496.409 252.178 496.265 252.071 496.163 251.928C496.062 251.786 496.007 251.616 496.007 251.441C496.007 251.266 496.062 251.095 496.163 250.953C496.265 250.811 496.409 250.704 496.574 250.647L528.077 232.337C528.504 232.116 528.977 232 529.458 232C529.939 232 530.412 232.116 530.839 232.337L555.393 246.531Z" fill="url(#paint118_linear)"/>
<path d="M555.406 248.138L523.897 266.428C523.473 266.644 523.005 266.757 522.529 266.757C522.054 266.757 521.585 266.644 521.161 266.428L496.574 252.234C496.416 252.164 496.279 252.053 496.179 251.912C496.078 251.772 496.016 251.607 496 251.434V253.608C496.016 253.78 496.077 253.944 496.178 254.084C496.279 254.223 496.416 254.333 496.574 254.402L521.161 268.602C521.585 268.815 522.052 268.926 522.526 268.926C523 268.926 523.467 268.815 523.89 268.602L555.406 250.286C555.567 250.221 555.707 250.113 555.812 249.974C555.916 249.836 555.981 249.671 556 249.499V247.331C555.985 247.507 555.921 247.675 555.817 247.818C555.712 247.96 555.57 248.071 555.406 248.138Z" fill="url(#paint119_linear)"/>
<defs>
<linearGradient id="paint0_linear" x1="108.589" y1="92.1807" x2="140.089" y2="81.2107" gradientUnits="userSpaceOnUse">
<stop stop-color="#292376"/>
<stop offset="1" stop-color="#5D278F" stop-opacity="0"/>
</linearGradient>
<linearGradient id="paint1_linear" x1="136.71" y1="69.6705" x2="95.3704" y2="83.1705" gradientUnits="userSpaceOnUse">
<stop stop-color="#534741"/>
<stop offset="1" stop-color="#D1985C"/>
</linearGradient>
<linearGradient id="paint2_linear" x1="94.0097" y1="73.3506" x2="136.68" y2="73.3506" gradientUnits="userSpaceOnUse">
<stop stop-color="#FBB03B"/>
<stop offset="1" stop-color="#FA7419"/>
</linearGradient>
<linearGradient id="paint3_linear" x1="139.01" y1="67.3007" x2="126.96" y2="73.1807" gradientUnits="userSpaceOnUse">
<stop stop-color="#FEF100"/>
<stop offset="1" stop-color="#93E04A"/>
</linearGradient>
<linearGradient id="paint4_linear" x1="511.531" y1="280.149" x2="643.834" y2="280.149" gradientUnits="userSpaceOnUse">
<stop stop-color="#FEF100"/>
<stop offset="1" stop-color="#93E04A"/>
</linearGradient>
<linearGradient id="paint5_linear" x1="93" y1="612.938" x2="2090.2" y2="612.938" gradientUnits="userSpaceOnUse">
<stop stop-color="#FEF100"/>
<stop offset="1" stop-color="#93E04A"/>
</linearGradient>
<linearGradient id="paint6_linear" x1="859.474" y1="435.745" x2="859.474" y2="79.2078" gradientUnits="userSpaceOnUse">
<stop stop-color="#FEF100"/>
<stop offset="1" stop-color="#93E04A"/>
</linearGradient>
<linearGradient id="paint7_linear" x1="18.7402" y1="120.02" x2="76.9202" y2="126.53" gradientUnits="userSpaceOnUse">
<stop stop-color="#292376"/>
<stop offset="1" stop-color="#5D278F" stop-opacity="0"/>
</linearGradient>
<linearGradient id="paint8_linear" x1="76.1198" y1="133.15" x2="4.78984" y2="120.47" gradientUnits="userSpaceOnUse">
<stop stop-color="#FBB03B"/>
<stop offset="1" stop-color="#F15A24"/>
</linearGradient>
<linearGradient id="paint9_linear" x1="-8548.74" y1="3807.87" x2="-11745.9" y2="4426.25" gradientUnits="userSpaceOnUse">
<stop stop-color="#FBB03B"/>
<stop offset="1" stop-color="#F15A24"/>
</linearGradient>
<linearGradient id="paint10_linear" x1="38.5602" y1="107.24" x2="33.2002" y2="119.87" gradientUnits="userSpaceOnUse">
<stop stop-color="#FEF100"/>
<stop offset="1" stop-color="#B0E021"/>
</linearGradient>
<linearGradient id="paint11_linear" x1="-496.614" y1="1082.08" x2="-459.108" y2="1069.08" gradientUnits="userSpaceOnUse">
<stop stop-color="#FEF100"/>
<stop offset="1" stop-color="#B0E021"/>
</linearGradient>
<linearGradient id="paint12_linear" x1="-2538.47" y1="1514.1" x2="-2343.7" y2="1514.1" gradientUnits="userSpaceOnUse">
<stop stop-color="#FBB03B"/>
<stop offset="1" stop-color="#F15A24"/>
</linearGradient>
<linearGradient id="paint13_linear" x1="-1180.91" y1="1077.14" x2="-1133.51" y2="1077.14" gradientUnits="userSpaceOnUse">
<stop stop-color="#FBB03B"/>
<stop offset="1" stop-color="#F15A24"/>
</linearGradient>
<linearGradient id="paint14_linear" x1="7.25973" y1="45.1201" x2="37.8397" y2="106.71" gradientUnits="userSpaceOnUse">
<stop stop-color="#B0E021"/>
<stop offset="1" stop-color="#FEF100"/>
</linearGradient>
<linearGradient id="paint15_linear" x1="-5093.82" y1="5097.82" x2="-3603.84" y2="4613.55" gradientUnits="userSpaceOnUse">
<stop stop-color="#B0E021"/>
<stop offset="1" stop-color="#FEF100"/>
</linearGradient>
<linearGradient id="paint16_linear" x1="53.4803" y1="51.63" x2="97.5503" y2="22.32" gradientUnits="userSpaceOnUse">
<stop stop-color="#F3D7C3"/>
<stop offset="0.97" stop-color="white"/>
</linearGradient>
<linearGradient id="paint17_linear" x1="-2157.23" y1="529.841" x2="-1962.44" y2="529.841" gradientUnits="userSpaceOnUse">
<stop stop-color="#FBB03B"/>
<stop offset="1" stop-color="#F15A24"/>
</linearGradient>
<linearGradient id="paint18_linear" x1="-1009.45" y1="390.2" x2="-961.982" y2="390.2" gradientUnits="userSpaceOnUse">
<stop stop-color="#FBB03B"/>
<stop offset="1" stop-color="#F15A24"/>
</linearGradient>
<linearGradient id="paint19_linear" x1="-7301.53" y1="347.06" x2="-5772.32" y2="347.06" gradientUnits="userSpaceOnUse">
<stop stop-color="#B0E021"/>
<stop offset="1" stop-color="#FEF100"/>
</linearGradient>
<linearGradient id="paint20_linear" x1="-5956.52" y1="211.853" x2="-6603.02" y2="-490.322" gradientUnits="userSpaceOnUse">
<stop stop-color="#B0E021"/>
<stop offset="1" stop-color="#FEF100"/>
</linearGradient>
<linearGradient id="paint21_linear" x1="1785.14" y1="2274.12" x2="4148.94" y2="907.901" gradientUnits="userSpaceOnUse">
<stop stop-color="#FBB03B"/>
<stop offset="1" stop-color="#F15A24"/>
</linearGradient>
<linearGradient id="paint22_linear" x1="1071.94" y1="722.086" x2="1859.36" y2="44.0554" gradientUnits="userSpaceOnUse">
<stop stop-color="#FEF100"/>
<stop offset="1" stop-color="#B0E021"/>
</linearGradient>
<linearGradient id="paint23_linear" x1="90.7503" y1="31.52" x2="52.6603" y2="46.4" gradientUnits="userSpaceOnUse">
<stop stop-color="#F1FFFF"/>
<stop offset="0.97" stop-color="#F1EC83"/>
</linearGradient>
<linearGradient id="paint24_linear" x1="568.89" y1="172.17" x2="608.21" y2="158.47" gradientUnits="userSpaceOnUse">
<stop stop-color="#292376"/>
<stop offset="1" stop-color="#5D278F" stop-opacity="0"/>
</linearGradient>
<linearGradient id="paint25_linear" x1="598.22" y1="132.81" x2="606.61" y2="132.81" gradientUnits="userSpaceOnUse">
<stop stop-color="#292376"/>
<stop offset="1" stop-color="#5D278F"/>
</linearGradient>
<linearGradient id="paint26_linear" x1="599.86" y1="147.52" x2="611.73" y2="142.55" gradientUnits="userSpaceOnUse">
<stop stop-color="#5D278F"/>
<stop offset="1" stop-color="#292376"/>
</linearGradient>
<linearGradient id="paint27_linear" x1="919.882" y1="1767.64" x2="1070.48" y2="1658.73" gradientUnits="userSpaceOnUse">
<stop stop-color="#292376"/>
<stop offset="1" stop-color="#5D278F"/>
</linearGradient>
<linearGradient id="paint28_linear" x1="578.241" y1="144.8" x2="578.241" y2="123.92" gradientUnits="userSpaceOnUse">
<stop stop-color="#DBF9EA"/>
<stop offset="0.97" stop-color="white"/>
</linearGradient>
<linearGradient id="paint29_linear" x1="623.878" y1="4170.83" x2="2318.02" y2="4170.83" gradientUnits="userSpaceOnUse">
<stop stop-color="#5D278F"/>
<stop offset="1" stop-color="#292376"/>
</linearGradient>
<linearGradient id="paint30_linear" x1="627.923" y1="1638.58" x2="2313.85" y2="1638.58" gradientUnits="userSpaceOnUse">
<stop stop-color="#DBF9EA"/>
<stop offset="0.97" stop-color="white"/>
</linearGradient>
<linearGradient id="paint31_linear" x1="578.241" y1="144.8" x2="578.241" y2="123.92" gradientUnits="userSpaceOnUse">
<stop stop-color="#DBF9EA"/>
<stop offset="0.97" stop-color="white"/>
</linearGradient>
<linearGradient id="paint32_linear" x1="623.878" y1="4170.83" x2="2318.02" y2="4170.83" gradientUnits="userSpaceOnUse">
<stop stop-color="#5D278F"/>
<stop offset="1" stop-color="#292376"/>
</linearGradient>
<linearGradient id="paint33_linear" x1="627.923" y1="1638.58" x2="2313.85" y2="1638.58" gradientUnits="userSpaceOnUse">
<stop stop-color="#DBF9EA"/>
<stop offset="0.97" stop-color="white"/>
</linearGradient>
<linearGradient id="paint34_linear" x1="592.47" y1="133.79" x2="552.29" y2="133.79" gradientUnits="userSpaceOnUse">
<stop stop-color="#DBF9EA" stop-opacity="0"/>
<stop offset="1" stop-color="#8CCACE"/>
</linearGradient>
<linearGradient id="paint35_linear" x1="590.57" y1="138.76" x2="555.84" y2="138.76" gradientUnits="userSpaceOnUse">
<stop stop-color="#D1985C"/>
<stop offset="1" stop-color="#534741"/>
</linearGradient>
<linearGradient id="paint36_linear" x1="585.67" y1="71.9901" x2="585.67" y2="138.13" gradientUnits="userSpaceOnUse">
<stop stop-color="white" stop-opacity="0.25"/>
<stop offset="1" stop-color="#DBF9EA" stop-opacity="0"/>
</linearGradient>
<linearGradient id="paint37_linear" x1="601.273" y1="190.415" x2="601.276" y2="190.415" gradientUnits="userSpaceOnUse">
<stop stop-color="#5D278F"/>
<stop offset="1" stop-color="#292376"/>
</linearGradient>
<linearGradient id="paint38_linear" x1="428" y1="404.271" x2="516.7" y2="404.271" gradientUnits="userSpaceOnUse">
<stop stop-color="#292376"/>
<stop offset="1" stop-color="#5D278F" stop-opacity="0"/>
</linearGradient>
<linearGradient id="paint39_linear" x1="4468.16" y1="2948.23" x2="12335.9" y2="2948.23" gradientUnits="userSpaceOnUse">
<stop stop-color="#292376"/>
<stop offset="1" stop-color="#5D278F" stop-opacity="0"/>
</linearGradient>
<linearGradient id="paint40_linear" x1="420" y1="403.271" x2="508.7" y2="403.271" gradientUnits="userSpaceOnUse">
<stop stop-color="#5DDF8F"/>
<stop offset="1" stop-color="#63B7C9"/>
</linearGradient>
<linearGradient id="paint41_linear" x1="2278.4" y1="1655.18" x2="5470.65" y2="1655.18" gradientUnits="userSpaceOnUse">
<stop stop-color="#5DDF8F"/>
<stop offset="1" stop-color="#63B7C9"/>
</linearGradient>
<linearGradient id="paint42_linear" x1="2429.36" y1="1752.34" x2="6145.48" y2="1752.34" gradientUnits="userSpaceOnUse">
<stop stop-color="#5DDF8F"/>
<stop offset="1" stop-color="#63B7C9"/>
</linearGradient>
<linearGradient id="paint43_linear" x1="2692.98" y1="1856.81" x2="5943.32" y2="1856.81" gradientUnits="userSpaceOnUse">
<stop stop-color="#5DDF8F"/>
<stop offset="1" stop-color="#63B7C9"/>
</linearGradient>
<linearGradient id="paint44_linear" x1="420" y1="2843.67" x2="5243.3" y2="2843.67" gradientUnits="userSpaceOnUse">
<stop stop-color="#5DDF8F"/>
<stop offset="1" stop-color="#63B7C9"/>
</linearGradient>
<linearGradient id="paint45_linear" x1="4407.06" y1="2570.77" x2="7604.97" y2="2570.77" gradientUnits="userSpaceOnUse">
<stop stop-color="#5DDF8F"/>
<stop offset="1" stop-color="#63B7C9"/>
</linearGradient>
<linearGradient id="paint46_linear" x1="3750.56" y1="2972.63" x2="11618.3" y2="2972.63" gradientUnits="userSpaceOnUse">
<stop stop-color="#5DDF8F"/>
<stop offset="1" stop-color="#63B7C9"/>
</linearGradient>
<linearGradient id="paint47_linear" x1="531.17" y1="417.871" x2="453.67" y2="397.541" gradientUnits="userSpaceOnUse">
<stop stop-color="#FFEDE0"/>
<stop offset="0.97" stop-color="white"/>
</linearGradient>
<linearGradient id="paint48_linear" x1="990.843" y1="1820.32" x2="4927.77" y2="4364.83" gradientUnits="userSpaceOnUse">
<stop stop-color="#FFEDE0"/>
<stop offset="0.97" stop-color="white"/>
</linearGradient>
<linearGradient id="paint49_linear" x1="10094" y1="3309.45" x2="6189.97" y2="967.413" gradientUnits="userSpaceOnUse">
<stop stop-color="#FFEDE0"/>
<stop offset="0.97" stop-color="white"/>
</linearGradient>
<linearGradient id="paint50_linear" x1="542.286" y1="339.82" x2="602.586" y2="339.82" gradientUnits="userSpaceOnUse">
<stop stop-color="#292376"/>
<stop offset="1" stop-color="#5D278F" stop-opacity="0"/>
</linearGradient>
<linearGradient id="paint51_linear" x1="583.976" y1="325.42" x2="592.206" y2="325.42" gradientUnits="userSpaceOnUse">
<stop stop-color="#FBB78E"/>
<stop offset="1" stop-color="#E76384"/>
</linearGradient>
<linearGradient id="paint52_linear" x1="558.477" y1="333.48" x2="589.837" y2="333.48" gradientUnits="userSpaceOnUse">
<stop stop-color="#C0DDE2"/>
<stop offset="1" stop-color="#DBF9EA"/>
</linearGradient>
<linearGradient id="paint53_linear" x1="587.258" y1="733.681" x2="652.52" y2="733.681" gradientUnits="userSpaceOnUse">
<stop stop-color="#FBB78E"/>
<stop offset="1" stop-color="#E76384"/>
</linearGradient>
<linearGradient id="paint54_linear" x1="752.627" y1="895.233" x2="1467.05" y2="895.233" gradientUnits="userSpaceOnUse">
<stop stop-color="#FBB78E"/>
<stop offset="1" stop-color="#E76384"/>
</linearGradient>
<linearGradient id="paint55_linear" x1="532.506" y1="352.6" x2="546.046" y2="352.6" gradientUnits="userSpaceOnUse">
<stop stop-color="white"/>
<stop offset="1" stop-color="#DBF9EA"/>
</linearGradient>
<linearGradient id="paint56_linear" x1="534.923" y1="464.619" x2="538.725" y2="464.619" gradientUnits="userSpaceOnUse">
<stop stop-color="white"/>
<stop offset="1" stop-color="#DBF9EA"/>
</linearGradient>
<linearGradient id="paint57_linear" x1="530.996" y1="357.38" x2="534.226" y2="357.38" gradientUnits="userSpaceOnUse">
<stop stop-color="#5D278F"/>
<stop offset="1" stop-color="#292376"/>
</linearGradient>
<linearGradient id="paint58_linear" x1="1137.14" y1="380.218" x2="1418.04" y2="380.218" gradientUnits="userSpaceOnUse">
<stop stop-color="#FBB78E"/>
<stop offset="1" stop-color="#E76384"/>
</linearGradient>
<linearGradient id="paint59_linear" x1="1057.12" y1="400.362" x2="1221.48" y2="400.362" gradientUnits="userSpaceOnUse">
<stop stop-color="#FBB78E"/>
<stop offset="1" stop-color="#E76384"/>
</linearGradient>
<linearGradient id="paint60_linear" x1="699.89" y1="374.672" x2="715.493" y2="374.672" gradientUnits="userSpaceOnUse">
<stop stop-color="#FBB78E"/>
<stop offset="1" stop-color="#E76384"/>
</linearGradient>
<linearGradient id="paint61_linear" x1="614.973" y1="224.884" x2="29.29" y2="224.884" gradientUnits="userSpaceOnUse">
<stop stop-color="#00A8FF"/>
<stop offset="1" stop-color="#1FEAEC"/>
</linearGradient>
<linearGradient id="paint62_linear" x1="614.974" y1="304.175" x2="29.291" y2="304.175" gradientUnits="userSpaceOnUse">
<stop stop-color="#DBF9EA"/>
<stop offset="1" stop-color="#C0DDE2"/>
</linearGradient>
<linearGradient id="paint63_linear" x1="497.68" y1="140.89" x2="537" y2="127.19" gradientUnits="userSpaceOnUse">
<stop stop-color="#292376"/>
<stop offset="1" stop-color="#5D278F" stop-opacity="0"/>
</linearGradient>
<linearGradient id="paint64_linear" x1="529.23" y1="95.35" x2="480.93" y2="96.87" gradientUnits="userSpaceOnUse">
<stop stop-color="#E76C6B"/>
<stop offset="1" stop-color="#FBB78E"/>
</linearGradient>
<linearGradient id="paint65_linear" x1="2.13657" y1="1902.86" x2="3780.24" y2="1801.71" gradientUnits="userSpaceOnUse">
<stop stop-color="#E76C6B"/>
<stop offset="1" stop-color="#FBB78E"/>
</linearGradient>
<linearGradient id="paint66_linear" x1="4424.45" y1="599.662" x2="1708.1" y2="2263.48" gradientUnits="userSpaceOnUse">
<stop stop-color="#E76C6B"/>
<stop offset="1" stop-color="#FBB78E"/>
</linearGradient>
<linearGradient id="paint67_linear" x1="480.721" y1="795.409" x2="3771.46" y2="795.409" gradientUnits="userSpaceOnUse">
<stop stop-color="#E76C6B"/>
<stop offset="1" stop-color="#FBB78E"/>
</linearGradient>
<linearGradient id="paint68_linear" x1="508.51" y1="91.09" x2="506.8" y2="119.16" gradientUnits="userSpaceOnUse">
<stop stop-color="#534741"/>
<stop offset="1" stop-color="#D1985C"/>
</linearGradient>
<linearGradient id="paint69_linear" x1="507.7" y1="87.3101" x2="517.87" y2="87.3101" gradientUnits="userSpaceOnUse">
<stop stop-color="#25CE81"/>
<stop offset="1" stop-color="#C3E421"/>
</linearGradient>
<linearGradient id="paint70_linear" x1="939.143" y1="375.575" x2="1119.67" y2="375.575" gradientUnits="userSpaceOnUse">
<stop stop-color="#25CE81"/>
<stop offset="1" stop-color="#C3E421"/>
</linearGradient>
<linearGradient id="paint71_linear" x1="698.365" y1="211.09" x2="824.569" y2="211.09" gradientUnits="userSpaceOnUse">
<stop stop-color="#25CE81"/>
<stop offset="1" stop-color="#C3E421"/>
</linearGradient>
<linearGradient id="paint72_linear" x1="745.034" y1="231.848" x2="790.659" y2="231.848" gradientUnits="userSpaceOnUse">
<stop stop-color="#25CE81"/>
<stop offset="1" stop-color="#C3E421"/>
</linearGradient>
<linearGradient id="paint73_linear" x1="942.456" y1="316.946" x2="1070.37" y2="316.946" gradientUnits="userSpaceOnUse">
<stop stop-color="#25CE81"/>
<stop offset="1" stop-color="#C3E421"/>
</linearGradient>
<linearGradient id="paint74_linear" x1="537.99" y1="212.303" x2="551.093" y2="212.303" gradientUnits="userSpaceOnUse">
<stop stop-color="#25CE81"/>
<stop offset="1" stop-color="#C3E421"/>
</linearGradient>
<linearGradient id="paint75_linear" x1="586.868" y1="233.213" x2="678.313" y2="233.213" gradientUnits="userSpaceOnUse">
<stop stop-color="#25CE81"/>
<stop offset="1" stop-color="#C3E421"/>
</linearGradient>
<linearGradient id="paint76_linear" x1="760.987" y1="386.583" x2="977.918" y2="386.583" gradientUnits="userSpaceOnUse">
<stop stop-color="#25CE81"/>
<stop offset="1" stop-color="#C3E421"/>
</linearGradient>
<linearGradient id="paint77_linear" x1="786.23" y1="398.25" x2="912.793" y2="398.25" gradientUnits="userSpaceOnUse">
<stop stop-color="#25CE81"/>
<stop offset="1" stop-color="#C3E421"/>
</linearGradient>
<linearGradient id="paint78_linear" x1="681.172" y1="391.465" x2="961.735" y2="391.465" gradientUnits="userSpaceOnUse">
<stop stop-color="#25CE81"/>
<stop offset="1" stop-color="#C3E421"/>
</linearGradient>
<linearGradient id="paint79_linear" x1="742.991" y1="362.027" x2="911.731" y2="362.027" gradientUnits="userSpaceOnUse">
<stop stop-color="#25CE81"/>
<stop offset="1" stop-color="#C3E421"/>
</linearGradient>
<linearGradient id="paint80_linear" x1="244" y1="98.3826" x2="303.968" y2="98.3826" gradientUnits="userSpaceOnUse">
<stop stop-color="#FED3A1"/>
<stop offset="1" stop-color="#DE4E72"/>
</linearGradient>
<linearGradient id="paint81_linear" x1="244" y1="106.305" x2="303.968" y2="106.305" gradientUnits="userSpaceOnUse">
<stop stop-color="#DBF9EA"/>
<stop offset="1" stop-color="#2F80ED"/>
</linearGradient>
<linearGradient id="paint82_linear" x1="198" y1="126.383" x2="257.968" y2="126.383" gradientUnits="userSpaceOnUse">
<stop stop-color="#DFFEEA"/>
<stop offset="0.9999" stop-color="#329569"/>
<stop offset="1" stop-color="#DE4E72"/>
</linearGradient>
<linearGradient id="paint83_linear" x1="198" y1="134.305" x2="257.968" y2="134.305" gradientUnits="userSpaceOnUse">
<stop stop-color="#DBF9EA"/>
<stop offset="1" stop-color="#2F80ED"/>
</linearGradient>
<linearGradient id="paint84_linear" x1="198" y1="126.383" x2="257.968" y2="126.383" gradientUnits="userSpaceOnUse">
<stop stop-color="#A5F0E7"/>
<stop offset="0.770833" stop-color="#45B980"/>
</linearGradient>
<linearGradient id="paint85_linear" x1="198" y1="134.305" x2="257.968" y2="134.305" gradientUnits="userSpaceOnUse">
<stop stop-color="#DBF9EA"/>
<stop offset="1" stop-color="#2F80ED"/>
</linearGradient>
<linearGradient id="paint86_linear" x1="153" y1="150.383" x2="212.968" y2="150.383" gradientUnits="userSpaceOnUse">
<stop stop-color="#A5F0E7"/>
<stop offset="0.770833" stop-color="#45B980"/>
</linearGradient>
<linearGradient id="paint87_linear" x1="153" y1="158.305" x2="212.968" y2="158.305" gradientUnits="userSpaceOnUse">
<stop stop-color="#DBF9EA"/>
<stop offset="1" stop-color="#2F80ED"/>
</linearGradient>
<linearGradient id="paint88_linear" x1="231" y1="248.383" x2="290.968" y2="248.383" gradientUnits="userSpaceOnUse">
<stop stop-color="#A5F0E7"/>
<stop offset="0.770833" stop-color="#45B980"/>
</linearGradient>
<linearGradient id="paint89_linear" x1="231" y1="256.305" x2="290.968" y2="256.305" gradientUnits="userSpaceOnUse">
<stop stop-color="#DBF9EA"/>
<stop offset="1" stop-color="#2F80ED"/>
</linearGradient>
<linearGradient id="paint90_linear" x1="274" y1="221.383" x2="333.968" y2="221.383" gradientUnits="userSpaceOnUse">
<stop stop-color="#A5F0E7"/>
<stop offset="0.770833" stop-color="#45B980"/>
</linearGradient>
<linearGradient id="paint91_linear" x1="274" y1="229.305" x2="333.968" y2="229.305" gradientUnits="userSpaceOnUse">
<stop stop-color="#DBF9EA"/>
<stop offset="1" stop-color="#2F80ED"/>
</linearGradient>
<linearGradient id="paint92_linear" x1="407" y1="247.383" x2="466.968" y2="247.383" gradientUnits="userSpaceOnUse">
<stop stop-color="#A5F0E7"/>
<stop offset="0.770833" stop-color="#45B980"/>
</linearGradient>
<linearGradient id="paint93_linear" x1="407" y1="255.305" x2="466.968" y2="255.305" gradientUnits="userSpaceOnUse">
<stop stop-color="#DBF9EA"/>
<stop offset="1" stop-color="#2F80ED"/>
</linearGradient>
<linearGradient id="paint94_linear" x1="235" y1="146.383" x2="294.968" y2="146.383" gradientUnits="userSpaceOnUse">
<stop stop-color="#FFE6EA"/>
<stop offset="1" stop-color="#7441C8"/>
</linearGradient>
<linearGradient id="paint95_linear" x1="235" y1="154.305" x2="294.968" y2="154.305" gradientUnits="userSpaceOnUse">
<stop stop-color="#DBF9EA"/>
<stop offset="1" stop-color="#2F80ED"/>
</linearGradient>
<linearGradient id="paint96_linear" x1="192" y1="172.383" x2="251.968" y2="172.383" gradientUnits="userSpaceOnUse">
<stop stop-color="#FFE6EA"/>
<stop offset="1" stop-color="#7441C8"/>
</linearGradient>
<linearGradient id="paint97_linear" x1="192" y1="180.305" x2="251.968" y2="180.305" gradientUnits="userSpaceOnUse">
<stop stop-color="#DBF9EA"/>
<stop offset="1" stop-color="#2F80ED"/>
</linearGradient>
<linearGradient id="paint98_linear" x1="320" y1="195.383" x2="379.968" y2="195.383" gradientUnits="userSpaceOnUse">
<stop stop-color="#FFE6EA"/>
<stop offset="1" stop-color="#7441C8"/>
</linearGradient>
<linearGradient id="paint99_linear" x1="320" y1="203.305" x2="379.968" y2="203.305" gradientUnits="userSpaceOnUse">
<stop stop-color="#DBF9EA"/>
<stop offset="1" stop-color="#2F80ED"/>
</linearGradient>
<linearGradient id="paint100_linear" x1="362" y1="332.383" x2="421.968" y2="332.383" gradientUnits="userSpaceOnUse">
<stop stop-color="#A5F0E7"/>
<stop offset="0.770833" stop-color="#45B980"/>
</linearGradient>
<linearGradient id="paint101_linear" x1="362" y1="340.305" x2="421.968" y2="340.305" gradientUnits="userSpaceOnUse">
<stop stop-color="#DBF9EA"/>
<stop offset="1" stop-color="#2F80ED"/>
</linearGradient>
<linearGradient id="paint102_linear" x1="405" y1="305.383" x2="464.968" y2="305.383" gradientUnits="userSpaceOnUse">
<stop stop-color="#A5F0E7"/>
<stop offset="0.770833" stop-color="#45B980"/>
</linearGradient>
<linearGradient id="paint103_linear" x1="405" y1="313.305" x2="464.968" y2="313.305" gradientUnits="userSpaceOnUse">
<stop stop-color="#DBF9EA"/>
<stop offset="1" stop-color="#2F80ED"/>
</linearGradient>
<linearGradient id="paint104_linear" x1="451" y1="279.383" x2="510.968" y2="279.383" gradientUnits="userSpaceOnUse">
<stop stop-color="#FFE6EA"/>
<stop offset="1" stop-color="#7441C8"/>
</linearGradient>
<linearGradient id="paint105_linear" x1="451" y1="287.305" x2="510.968" y2="287.305" gradientUnits="userSpaceOnUse">
<stop stop-color="#DBF9EA"/>
<stop offset="1" stop-color="#2F80ED"/>
</linearGradient>
<linearGradient id="paint106_linear" x1="317" y1="360.383" x2="376.968" y2="360.383" gradientUnits="userSpaceOnUse">
<stop stop-color="#FFE6EA"/>
<stop offset="1" stop-color="#7441C8"/>
</linearGradient>
<linearGradient id="paint107_linear" x1="317" y1="368.305" x2="376.968" y2="368.305" gradientUnits="userSpaceOnUse">
<stop stop-color="#DBF9EA"/>
<stop offset="1" stop-color="#2F80ED"/>
</linearGradient>
<linearGradient id="paint108_linear" x1="282" y1="120.383" x2="341.968" y2="120.383" gradientUnits="userSpaceOnUse">
<stop stop-color="#FED3A1"/>
<stop offset="1" stop-color="#DE4E72"/>
</linearGradient>
<linearGradient id="paint109_linear" x1="282" y1="128.305" x2="341.968" y2="128.305" gradientUnits="userSpaceOnUse">
<stop stop-color="#DBF9EA"/>
<stop offset="1" stop-color="#2F80ED"/>
</linearGradient>
<linearGradient id="paint110_linear" x1="320" y1="144.383" x2="379.968" y2="144.383" gradientUnits="userSpaceOnUse">
<stop stop-color="#FED3A1"/>
<stop offset="1" stop-color="#DE4E72"/>
</linearGradient>
<linearGradient id="paint111_linear" x1="320" y1="152.305" x2="379.968" y2="152.305" gradientUnits="userSpaceOnUse">
<stop stop-color="#DBF9EA"/>
<stop offset="1" stop-color="#2F80ED"/>
</linearGradient>
<linearGradient id="paint112_linear" x1="360" y1="168.383" x2="419.968" y2="168.383" gradientUnits="userSpaceOnUse">
<stop stop-color="#FED3A1"/>
<stop offset="1" stop-color="#DE4E72"/>
</linearGradient>
<linearGradient id="paint113_linear" x1="360" y1="176.305" x2="419.968" y2="176.305" gradientUnits="userSpaceOnUse">
<stop stop-color="#DBF9EA"/>
<stop offset="1" stop-color="#2F80ED"/>
</linearGradient>
<linearGradient id="paint114_linear" x1="403" y1="194.383" x2="462.968" y2="194.383" gradientUnits="userSpaceOnUse">
<stop stop-color="#FED3A1"/>
<stop offset="1" stop-color="#DE4E72"/>
</linearGradient>
<linearGradient id="paint115_linear" x1="403" y1="202.305" x2="462.968" y2="202.305" gradientUnits="userSpaceOnUse">
<stop stop-color="#DBF9EA"/>
<stop offset="1" stop-color="#2F80ED"/>
</linearGradient>
<linearGradient id="paint116_linear" x1="447" y1="219.383" x2="506.968" y2="219.383" gradientUnits="userSpaceOnUse">
<stop stop-color="#FED3A1"/>
<stop offset="1" stop-color="#DE4E72"/>
</linearGradient>
<linearGradient id="paint117_linear" x1="447" y1="227.305" x2="506.968" y2="227.305" gradientUnits="userSpaceOnUse">
<stop stop-color="#DBF9EA"/>
<stop offset="1" stop-color="#2F80ED"/>
</linearGradient>
<linearGradient id="paint118_linear" x1="496" y1="249.383" x2="555.968" y2="249.383" gradientUnits="userSpaceOnUse">
<stop stop-color="#B3BDC7"/>
<stop offset="1" stop-color="#213147"/>
</linearGradient>
<linearGradient id="paint119_linear" x1="496" y1="257.305" x2="555.968" y2="257.305" gradientUnits="userSpaceOnUse">
<stop stop-color="#DBF9EA"/>
<stop offset="1" stop-color="#2F80ED"/>
</linearGradient>
</defs>
</svg>
