<svg width="125" height="45" viewBox="0 0 125 45" fill="none" xmlns="http://www.w3.org/2000/svg">
<path d="M121.523 13.6685C112.947 4.97928 89.392 -0.498807 62.9124 0.035915C48.6844 0.322976 35.6758 2.20998 25.227 5.19458C24.6201 3.69454 23.1686 2.63635 21.47 2.63635C19.2269 2.63635 17.4074 4.47833 17.4074 6.7523C17.4074 7.10691 17.4658 7.44463 17.5477 7.7725C6.7503 11.9982 0.122407 17.6072 0.00157171 23.7339C-0.0206509 24.8667 0.193242 25.9812 0.614082 27.0746C0.876587 27.7542 1.22382 28.4268 1.65577 29.0868C1.90299 29.4653 2.17383 29.8396 2.47662 30.2111C2.78218 30.5868 3.10718 30.9597 3.4683 31.327C3.47247 31.3312 3.47524 31.3354 3.47941 31.3383C4.14748 32.0151 4.93499 32.6638 5.77806 33.2998C6.18085 33.6038 6.59474 33.9049 7.03503 34.199C8.1656 34.9533 9.42951 35.6695 10.7962 36.3562C11.349 36.6348 11.8893 36.9163 12.4782 37.1822C14.2143 37.9688 16.1227 38.6963 18.1505 39.3774C18.9297 39.6391 19.7394 39.8882 20.5575 40.133C23.3006 40.9548 26.2437 41.6894 29.3813 42.3169C30.6535 42.5716 31.9563 42.8066 33.2855 43.0276C39.9523 44.1336 47.2899 44.795 54.9873 44.954C57.329 45.0018 59.6915 45.0201 62.0888 44.9709C64.743 44.9174 67.3375 44.7921 69.8972 44.6303C77.7849 44.1322 85.1808 43.1415 91.8435 41.7456C93.1254 41.4769 94.3824 41.1954 95.6074 40.8985C98.7908 40.1246 101.766 39.2536 104.523 38.3009C105.31 38.0293 106.083 37.7521 106.831 37.4665C108.881 36.6855 110.795 35.8581 112.541 34.9842C113.109 34.7 113.649 34.4087 114.183 34.116C115.558 33.3589 116.811 32.5738 117.945 31.7618C118.383 31.448 118.823 31.1356 119.223 30.8148C119.944 30.2365 120.615 29.6483 121.208 29.0474C121.313 28.9405 121.405 28.8307 121.506 28.7238C121.875 28.3326 122.215 27.9386 122.527 27.5389C122.831 27.1505 123.115 26.7594 123.363 26.3625C123.786 25.6927 124.133 25.0131 124.394 24.3236C124.772 23.3245 124.977 22.3085 124.998 21.2756C125.052 18.6175 123.883 16.0593 121.523 13.6685ZM91.749 40.1949C83.0461 38.7498 73.2084 38.0392 62.9124 38.246C52.0775 38.4641 41.9537 39.6138 33.1244 41.4656C29.5451 40.8634 26.1534 40.1471 23.0395 39.3014C33.7952 35.9158 47.7427 33.7121 62.9416 33.4054C77.5835 33.1099 91.2837 34.6493 101.959 37.5424C98.8116 38.5345 95.3949 39.4252 91.749 40.1949ZM104.455 36.7178C93.3157 33.3786 78.6446 31.5606 62.9124 31.8786C46.4232 32.2121 31.5771 34.6943 20.4505 38.5415C18.2213 37.8577 16.1505 37.1104 14.2518 36.3041C25.5076 31.0498 43.1607 27.439 62.943 27.0394C77.9502 26.7368 91.9379 28.3734 102.714 31.41C102.808 32.2403 103.478 32.8932 104.321 32.8932C104.833 32.8932 105.271 32.6427 105.573 32.2712C107.415 32.8664 109.156 33.5011 110.76 34.1821C108.84 35.0771 106.728 35.9242 104.455 36.7178ZM112.545 33.3083C110.526 32.3936 108.287 31.5507 105.877 30.7782C105.68 30.0817 105.073 29.561 104.323 29.561C103.909 29.561 103.541 29.7299 103.252 29.9874C92.2712 26.8761 78.0793 25.2044 62.9152 25.5098C42.0676 25.9291 23.8423 29.7862 12.4476 35.4922C10.9504 34.783 9.55035 34.0428 8.32533 33.2548C18.5505 26.2429 39.2245 21.149 62.943 20.6692C85.785 20.209 106.341 24.211 116.681 30.8584C115.448 31.7041 114.07 32.5231 112.545 33.3083ZM117.974 29.9184C107.48 22.9122 86.3531 18.6682 62.9124 19.141C38.3509 19.6363 17.4408 24.9033 7.04197 32.343C6.11834 31.6689 5.25861 30.978 4.5461 30.2562C4.51693 30.2266 4.49748 30.1956 4.46832 30.1647C4.60443 30.0169 4.70999 29.8636 4.85443 29.7158C13.0574 21.4051 35.4341 15.0532 61.7124 14.3425C62.1068 15.0743 62.8638 15.5766 63.7457 15.5766C64.6569 15.5766 65.4374 15.0405 65.818 14.268C90.724 14.1723 112.459 19.383 120.455 27.484C120.491 27.5206 120.513 27.5586 120.55 27.5952C119.82 28.3903 118.952 29.1628 117.974 29.9184ZM121.533 26.4146C121.53 26.4118 121.527 26.4076 121.525 26.4047C113.287 18.0589 91.2226 12.6779 66.0222 12.7398C65.8027 11.6703 64.868 10.8669 63.7471 10.8669C62.6027 10.8669 61.6554 11.7069 61.4624 12.8116C34.3119 13.5714 11.8407 20.164 3.49608 29.0249C2.99468 28.3818 2.55717 27.7331 2.24883 27.076C2.81134 25.8011 3.66691 24.5529 4.85443 23.3484C13.1851 14.9082 36.1314 8.47467 62.943 7.93291C89.0406 7.40664 112.154 12.706 120.456 21.1194C121.491 22.1678 122.262 23.2414 122.769 24.332C122.455 25.0356 122.041 25.7307 121.533 26.4146ZM123.384 22.3465C122.879 21.5627 122.268 20.7916 121.523 20.0373C112.948 11.3481 89.3934 5.86861 62.9124 6.40333C32.7258 7.01404 8.04616 14.8266 1.6391 25.0299C1.56965 24.6092 1.50438 24.1885 1.51271 23.7649C1.55854 21.4178 2.73356 19.1325 4.85721 16.981C7.71698 14.0836 12.3296 11.4325 18.1963 9.16559C18.9352 10.1928 20.1228 10.8683 21.4728 10.8683C23.7159 10.8683 25.5354 9.02628 25.5354 6.7523C25.5354 6.74386 25.5326 6.73542 25.5326 6.72698C35.9161 3.76349 48.8844 1.84834 62.943 1.5655C89.0392 1.03782 112.152 6.33719 120.456 14.7506C122.515 16.836 123.536 19.0185 123.491 21.2433C123.484 21.6134 123.447 21.9806 123.384 22.3465Z" fill="#C7C7C7"/>
</svg>
